<?xml version="1.0" encoding="UTF-8"?>
<svg width="105px" height="105px" viewBox="0 0 105 105" version="1.1" xmlns="http://www.w3.org/2000/svg" xmlns:xlink="http://www.w3.org/1999/xlink">
    <title>pic-empty</title>
    <g id="页面-1" stroke="none" stroke-width="1" fill="none" fill-rule="evenodd">
        <g id="10-1-2-人才培训-技能" transform="translate(-135, -271)">
            <g id="img/default/jiaoshi/通用空" transform="translate(135, 271)">
                <rect id="Rectangle-2" fill="#D8D8D8" fill-rule="nonzero" opacity="0" x="1" y="0" width="105" height="105"></rect>
                <g id="Group-10" transform="translate(5.6667, 10.2083)">
                    <ellipse id="Oval-2" fill="#D8E4F2" fill-rule="nonzero" cx="46.8125" cy="70.5833333" rx="46.8125" ry="14"></ellipse>
                    <g id="Group" opacity="0.97" transform="translate(15.4583, 0)">
                        <path d="M65.6987292,35.6944841 L66.996684,31.2694518 C67.2211113,30.5043263 66.7827889,29.7021352 66.0176633,29.4777078 C65.2525378,29.2532804 64.4503467,29.6916029 64.2259193,30.4567284 L62.9279645,34.8817607 C62.7035372,35.6468862 63.1418596,36.4490773 63.9069852,36.6735047 C64.6721107,36.8979321 65.4743018,36.4596096 65.6987292,35.6944841 Z" id="Path-4" fill="#C0D3EA" fill-rule="nonzero" transform="translate(64.9623, 33.0756) rotate(-18) translate(-64.9623, -33.0756)"></path>
                        <path d="M69.7942826,37.2659693 L74.9081915,32.5006033 C75.4915398,31.9570148 75.5237706,31.0434513 74.9801811,30.460103 C74.4365915,29.8767548 73.523028,29.844524 72.9396797,30.3881135 L67.8257709,35.1534784 C67.2424226,35.6970679 67.2101918,36.6106315 67.7537813,37.1939797 C68.2973708,37.777328 69.2109344,37.8095588 69.7942826,37.2659693 Z" id="Path-5" fill="#C0D3EA" fill-rule="nonzero" transform="translate(71.367, 33.827) rotate(-18) translate(-71.367, -33.827)"></path>
                        <path d="M73.2830656,40.6854274 L77.1429502,39.7471537 C77.9177486,39.5588131 78.3931665,38.7780347 78.204826,38.0032363 C78.0164854,37.2284379 77.2357069,36.7530199 76.4609085,36.9413605 L72.601024,37.8796342 C71.8262256,38.0679748 71.3508076,38.8487532 71.5391482,39.6235516 C71.7274888,40.39835 72.5082672,40.873768 73.2830656,40.6854274 Z" id="Path-6" fill="#C0D3EA" fill-rule="nonzero" transform="translate(74.872, 38.8134) rotate(-18) translate(-74.872, -38.8134)"></path>
                        <rect id="Rectangle-28" fill="#C7D6E9" x="0" y="10.7101253" width="49" height="52.2083333"></rect>
                        <path d="M0,1.62003744e-12 L48.7878788,1.62003744e-12 L48.7878788,10.6741898 L10.395,10.6741898 C4.65400003,10.6741898 4.2557834e-15,6.02018979 3.55271368e-15,0.279189815 L0,1.62003744e-12 L0,1.62003744e-12 Z" id="Rectangle-28" fill="#C7D6E9" transform="translate(24.3939, 5.3371) scale(1, -1) translate(-24.3939, -5.3371)"></path>
                        <rect id="Rectangle-28-Copy" fill="#C7D6E9" transform="translate(50.6811, 5.3371) scale(1, -1) translate(-50.6811, -5.3371)" x="48.125" y="0" width="5.11212121" height="10.6741898"></rect>
                        <path d="M49,1.62003744e-12 L55.7523485,1.62003744e-12 C56.7091818,1.61986167e-12 57.4848485,0.775666671 57.4848485,1.7325 L57.4848485,6.43176557 C57.4848485,8.77479178 55.5854505,10.6741898 53.2424242,10.6741898 C50.899398,10.6741898 49,8.77479178 49,6.43176557 L49,1.62003744e-12 L49,1.62003744e-12 Z" id="Rectangle-28-Copy-3" fill="#89A5C6" transform="translate(53.2424, 5.3371) scale(1, -1) translate(-53.2424, -5.3371)"></path>
                        <polygon id="Rectangle-28-Copy" fill="#ACC2DD" transform="translate(59.1818, 57.2538) scale(1, -1) translate(-59.1818, -57.2538)" points="56 51.9166667 62.3636364 51.9166667 62.3636364 62.5908565 56 62.5908565"></polygon>
                        <path d="M57.75,51.9166667 L64.5023485,51.9166667 C65.4591818,51.9166667 66.2348485,52.6923333 66.2348485,53.6491667 L66.2348485,58.3484322 C66.2348485,60.6914585 64.3354505,62.5908565 61.9924242,62.5908565 C59.649398,62.5908565 57.75,60.6914585 57.75,58.3484322 L57.75,51.9166667 L57.75,51.9166667 Z" id="Rectangle-28-Copy-3" fill="#89A5C6" transform="translate(61.9924, 57.2538) scale(1, -1) translate(-61.9924, -57.2538)"></path>
                        <path d="M0,62.7083333 L48.7878788,62.7083333 L48.7878788,73.3825231 L10.395,73.3825231 C4.65400003,73.3825231 2.47942656e-15,68.7285231 1.77635684e-15,62.9875231 L0,62.7083333 L0,62.7083333 Z" id="Rectangle-28" fill="#C7D6E9"></path>
                        <polygon id="Rectangle-28-Copy" fill="#C7D6E9" points="48.125 62.7083333 53.380303 62.7083333 53.380303 73.3825231 48.125 73.3825231"></polygon>
                        <path d="M49,51.9166667 L55.7523485,51.9166667 C56.7091818,51.9166667 57.4848485,52.6923333 57.4848485,53.6491667 L57.4848485,69.0226221 C57.4848485,71.3656483 55.5854505,73.2650463 53.2424242,73.2650463 C50.899398,73.2650463 49,71.3656483 49,69.0226221 L49,51.9166667 L49,51.9166667 Z" id="Rectangle-28-Copy-3" fill="#ACC2DD"></path>
                    </g>
                    <line x1="23.84375" y1="16.1221264" x2="50.3854167" y2="16.1221264" id="Line-10" stroke="#FFFFFF" stroke-width="3.5" stroke-linecap="round" stroke-linejoin="round" fill-rule="nonzero"></line>
                    <line x1="23.84375" y1="27.7887931" x2="50.3854167" y2="27.7887931" id="Line-10-Copy" stroke="#FFFFFF" stroke-width="3.5" stroke-linecap="round" stroke-linejoin="round" fill-rule="nonzero"></line>
                    <line x1="23.84375" y1="39.375" x2="38.6458333" y2="39.375" id="Line-10-Copy-2" stroke="#FFFFFF" stroke-width="3.5" stroke-linecap="round" stroke-linejoin="round" fill-rule="nonzero"></line>
                </g>
            </g>
        </g>
    </g>
</svg>