<?xml version="1.0" encoding="UTF-8"?>
<svg width="50px" height="50px" viewBox="0 0 50 50" version="1.1" xmlns="http://www.w3.org/2000/svg" xmlns:xlink="http://www.w3.org/1999/xlink">
    <title>icon-tyjg-1</title>
    <defs>
        <linearGradient x1="50%" y1="0%" x2="50%" y2="100%" id="linearGradient-1">
            <stop stop-color="#51B3FF" offset="0%"></stop>
            <stop stop-color="#287CFF" offset="100%"></stop>
        </linearGradient>
    </defs>
    <g id="页面-1" stroke="none" stroke-width="1" fill="none" fill-rule="evenodd">
        <g id="4-1-一键建托" transform="translate(-27, -376)">
            <g id="icon-tyjg-1" transform="translate(27, 376)">
                <rect id="矩形" fill="url(#linearGradient-1)" x="0" y="0" width="50" height="50" rx="25"></rect>
                <g id="home-4-fill" transform="translate(11, 12)" fill="#FFFFFF" fill-rule="nonzero">
                    <path d="M24.1818182,23.7276938 C24.1818182,24.4303691 23.6119988,25 22.9090909,25 L5.09090907,25 C4.38800122,25 3.81818182,24.4303691 3.81818182,23.7276938 L3.81818182,12.2769377 L0,12.2769377 L13.1434545,0.331254499 C13.6290236,-0.110418166 14.3709764,-0.110418166 14.8565455,0.331254499 L28,12.2769377 L24.1818182,12.2769377 L24.1818182,23.7276938 Z M12.7272727,14.8215502 L12.7272727,22.4553875 L15.2727273,22.4553875 L15.2727273,14.8215502 L12.7272727,14.8215502 L12.7272727,14.8215502 Z" id="形状"></path>
                </g>
            </g>
        </g>
    </g>
</svg>