<?xml version="1.0" encoding="UTF-8"?>
<svg width="50px" height="50px" viewBox="0 0 50 50" version="1.1" xmlns="http://www.w3.org/2000/svg" xmlns:xlink="http://www.w3.org/1999/xlink">
    <title>icon-sfx-1</title>
    <defs>
        <linearGradient x1="50%" y1="0.613510025%" x2="50%" y2="100%" id="linearGradient-1">
            <stop stop-color="#20D9C4" offset="0%"></stop>
            <stop stop-color="#15C5B1" offset="100%"></stop>
        </linearGradient>
    </defs>
    <g id="页面-1" stroke="none" stroke-width="1" fill="none" fill-rule="evenodd">
        <g id="4-1-一键建托" transform="translate(-190, -376)">
            <g id="icon-sfx-1" transform="translate(190, 376)">
                <rect id="矩形备份" fill="url(#linearGradient-1)" x="0" y="0" width="50" height="50" rx="25"></rect>
                <g id="building-4-fill" transform="translate(12, 13)" fill="#FFFFFF" fill-rule="nonzero">
                    <path d="M23.6363636,21.6 L26,21.6 L26,24 L0,24 L0,21.6 L2.36363636,21.6 L2.36363636,1.20000001 C2.36363636,0.537258304 2.89275438,0 3.54545455,0 L22.4545455,0 C23.1072456,0 23.6363636,0.537258304 23.6363636,1.20000001 L23.6363636,21.6 Z M8.27272726,10.8 L8.27272726,13.2 L11.8181818,13.2 L11.8181818,10.8 L8.27272726,10.8 Z M8.27272726,6.00000001 L8.27272726,8.4 L11.8181818,8.4 L11.8181818,6.00000001 L8.27272726,6.00000001 L8.27272726,6.00000001 Z M8.27272726,15.6 L8.27272726,18 L11.8181818,18 L11.8181818,15.6 L8.27272726,15.6 Z M14.1818182,15.6 L14.1818182,18 L17.7272727,18 L17.7272727,15.6 L14.1818182,15.6 Z M14.1818182,10.8 L14.1818182,13.2 L17.7272727,13.2 L17.7272727,10.8 L14.1818182,10.8 L14.1818182,10.8 Z M14.1818182,6.00000001 L14.1818182,8.4 L17.7272727,8.4 L17.7272727,6.00000001 L14.1818182,6.00000001 L14.1818182,6.00000001 Z" id="形状"></path>
                </g>
            </g>
        </g>
    </g>
</svg>