<?xml version="1.0" encoding="UTF-8"?>
<svg width="16px" height="16px" viewBox="0 0 16 16" version="1.1" xmlns="http://www.w3.org/2000/svg" xmlns:xlink="http://www.w3.org/1999/xlink">
    <title>icon_search</title>
    <g id="页面-1" stroke="none" stroke-width="1" fill="none" fill-rule="evenodd">
        <g id="2-1-我要入托" transform="translate(-100, -108)" fill="#9997A9">
            <g id="形状结合" transform="translate(100, 108)">
                <path d="M8,1.71428571 C11.1559129,1.71428571 13.7142857,4.27265857 13.7142857,7.42857143 C13.7142857,8.79765692 13.2328093,10.0542876 12.4299441,11.038376 L14.089631,12.6982457 C14.3239456,12.9325603 14.3239456,13.3124593 14.089631,13.5467739 C13.8553164,13.7810884 13.4754174,13.7810884 13.2411029,13.5467739 L11.578859,11.8835841 C10.5994358,12.6713928 9.35477611,13.1428571 8,13.1428571 C4.84408714,13.1428571 2.28571429,10.5844843 2.28571429,7.42857143 C2.28571429,4.27265857 4.84408714,1.71428571 8,1.71428571 Z M8,2.78095238 C5.43319088,2.78095238 3.35238095,4.86176231 3.35238095,7.42857143 C3.35238095,9.99538055 5.43319088,12.0761905 8,12.0761905 C9.23454145,12.0761905 10.3566587,11.5948453 11.1889143,10.8095925 C11.2084835,10.7765065 11.2331662,10.7463844 11.2612039,10.7183467 C11.2903517,10.6891989 11.3217524,10.663677 11.3548454,10.6417809 C12.1561118,9.80878402 12.647619,8.67607656 12.647619,7.42857143 C12.647619,4.86176231 10.5668091,2.78095238 8,2.78095238 Z"></path>
            </g>
        </g>
    </g>
</svg>