<?xml version="1.0" encoding="UTF-8"?>
<svg width="34px" height="24px" viewBox="0 0 34 24" version="1.1" xmlns="http://www.w3.org/2000/svg" xmlns:xlink="http://www.w3.org/1999/xlink">
    <title>btn_dianhua</title>
    <g id="页面-1" stroke="none" stroke-width="1" fill="none" fill-rule="evenodd">
        <g id="2-2园所详情" transform="translate(-311, -273)">
            <g id="编组" transform="translate(12, 255)">
                <g id="btn_dianhua" transform="translate(299, 18)">
                    <rect id="矩形" fill="#68A3FF" x="0" y="0" width="34" height="24" rx="12"></rect>
                    <path d="M18.9589496,14.7554713 C18.9828908,14.7390098 19.2568842,14.5634205 19.3366881,14.514036 C19.4829953,14.4207541 19.6053613,14.3521646 19.7277273,14.2972929 C20.5842893,13.8967297 21.3397664,14.1793188 22.3373153,15.3837519 C22.9544656,16.127263 23.1380146,16.7884666 22.8986029,17.378337 C22.7203741,17.8173104 22.3798774,18.1218481 21.7707075,18.4977191 C21.7308056,18.5224113 21.3796684,18.7309237 21.2892239,18.7885389 C19.8713744,19.6911778 16.6206949,17.6252595 14.2824402,14.0942677 C11.9415254,10.5550451 11.3350156,6.77987438 12.7714861,5.86626111 L12.9603554,5.74279986 L13.1651854,5.60562069 C13.891401,5.12000643 14.3569239,4.92795559 14.9075709,5.02398101 C15.4582179,5.12000643 15.9264009,5.54251827 16.3227603,6.30797804 C17.1580413,7.92669224 16.9744923,8.69489559 15.8997995,9.39176578 C15.8226558,9.44389386 15.5486623,9.61399603 15.522061,9.63045753 C15.2587081,9.79781612 15.70561,10.9254289 16.7430609,12.492015 C17.7938125,14.072319 18.6716555,14.9365478 18.9589496,14.7554713 L18.9589496,14.7554713 Z" id="路径" fill="#FFFFFF" fill-rule="nonzero"></path>
                </g>
            </g>
        </g>
    </g>
</svg>