<?xml version="1.0" encoding="UTF-8"?>
<svg width="6px" height="11px" viewBox="0 0 6 11" version="1.1" xmlns="http://www.w3.org/2000/svg" xmlns:xlink="http://www.w3.org/1999/xlink">
    <title>icon-next</title>
    <g id="页面-1" stroke="none" stroke-width="1" fill="none" fill-rule="evenodd">
        <g id="2-1-我要入托" transform="translate(-345, -244)" fill="#287CFF">
            <g id="编组" transform="translate(12, 156)">
                <g id="icon/basic/jiantou/next/xs" transform="translate(329.5509, 88)">
                    <g id="icon/basic/next" transform="translate(-0.1989, 0)">
                        <rect id="矩形" fill-opacity="0" x="3.64797077" y="0" width="6" height="11"></rect>
                        <path d="M7.66672077,2.40209821 C7.93250781,2.40209821 8.14797077,2.61756117 8.14797077,2.88334821 C8.14797077,3.14913524 7.93250781,3.36459821 7.66672077,3.36459821 L2.44797077,3.36409821 L2.44797077,8.06459821 C2.44797077,8.3545477 2.21292027,8.58959821 1.92297077,8.58959821 C1.63302128,8.58959821 1.39797077,8.3545477 1.39797077,8.06459821 L1.39797077,2.92709821 L1.39848921,2.90588646 C1.39814485,2.89841689 1.39797077,2.89090288 1.39797077,2.88334821 C1.39797077,2.61756117 1.61343374,2.40209821 1.87922077,2.40209821 L7.66672077,2.40209821 Z" id="形状结合" transform="translate(4.773, 5.4958) rotate(135) translate(-4.773, -5.4958)"></path>
                    </g>
                </g>
            </g>
        </g>
    </g>
</svg>