<?xml version="1.0" encoding="UTF-8"?>
<svg width="12px" height="12px" viewBox="0 0 12 12" version="1.1" xmlns="http://www.w3.org/2000/svg" xmlns:xlink="http://www.w3.org/1999/xlink">
    <title>形状结合</title>
    <g id="页面-1" stroke="none" stroke-width="1" fill="none" fill-rule="evenodd">
        <g id="2-1-我要入托" transform="translate(-127, -224)" fill="#A9CAFF" fill-rule="nonzero">
            <g id="编组" transform="translate(12, 156)">
                <g id="编组-3" transform="translate(115, 68)">
                    <path d="M4.5528952,1 C5.07060532,1 5.4902923,1.41472571 5.4902923,1.92631579 C5.4902923,2.00963189 5.47916117,2.09037891 5.4582883,2.16718389 C5.91696856,2.22567558 6.27145655,2.61403488 6.27145655,3.08421053 C6.27145655,3.50372873 5.98923974,3.85811087 5.60217946,3.97208042 L6.12255597,4.48492086 C6.39727835,4.42698244 6.68228796,4.39649123 6.97450437,4.39649123 C7.87538024,4.39649123 8.70776044,4.68628928 9.38138547,5.17669286 L9.97580427,4.58974344 C10.2513105,4.31749453 10.6945503,4.31749625 10.9700544,4.5897473 C11.2413647,4.857854 11.2439617,5.29513788 10.975855,5.56644816 L10.3536453,6.1821518 C10.7850215,6.81965471 11.0365585,7.58606296 11.0365585,8.41052632 C11.0365585,8.5290541 11.0313597,8.64638201 11.0211752,8.76229952 C11.2533009,8.63336874 11.551678,8.65530984 11.7668119,8.83657938 C12.0458557,9.07169887 12.0791834,9.48583653 11.8412512,9.76158173 C10.6247007,11.1714707 8.84749957,12 6.93544616,12 C5.06608129,12 3.32462907,11.2082371 2.10939268,9.85226965 C1.86626479,9.58098621 1.89172021,9.16630335 2.16624895,8.92604956 C2.38528784,8.7343577 2.6967069,8.71162484 2.93714167,8.84805849 C2.9205827,8.7051396 2.91245027,8.55877145 2.91245027,8.41052632 C2.91245027,7.29526226 3.37272228,6.28622968 4.11579637,5.55880055 L3.635,5.084 L3.26563888,5.4491757 C2.74523497,5.96342863 1.90799833,5.96342894 1.38759405,5.4491764 C0.875116607,4.94275701 0.870205591,4.11677793 1.37662498,3.60430049 L1.38759404,3.59333144 L2.3705421,2.6210722 C2.17592061,2.45133721 2.0531696,2.20299206 2.0531696,1.92631579 C2.0531696,1.41472571 2.47285657,1 2.9905667,1 C3.31669734,1 3.60392898,1.16457765 3.7718503,1.41427222 C3.93953292,1.16457765 4.22676455,1 4.5528952,1 Z M6.97450437,8.79649123 C5.94617,8.79649123 5.0368339,9.29996052 4.4851555,10.071061 C5.22349453,10.4702649 6.061431,10.6877193 6.93544616,10.6877193 C7.83180172,10.6877193 8.69000063,10.458921 9.44161936,10.0411143 C8.88866892,9.28704101 7.98955898,8.79649123 6.97450437,8.79649123 Z M3.22491597,3.23859649 C3.00920342,3.23859649 2.83433385,3.41139887 2.83433385,3.6245614 C2.83433385,3.83772394 3.00920342,4.01052632 3.22491597,4.01052632 C3.44062852,4.01052632 3.6154981,3.83772394 3.6154981,3.6245614 C3.6154981,3.41139887 3.44062852,3.23859649 3.22491597,3.23859649 Z" id="形状结合"></path>
                </g>
            </g>
        </g>
    </g>
</svg>