<?xml version="1.0" encoding="UTF-8"?>
<svg width="40px" height="40px" viewBox="0 0 40 40" version="1.1" xmlns="http://www.w3.org/2000/svg" xmlns:xlink="http://www.w3.org/1999/xlink">
    <title>icon-jygy</title>
    <g id="页面-1" stroke="none" stroke-width="1" fill="none" fill-rule="evenodd">
        <g id="0-1公众端首页" transform="translate(-292, -432)">
            <g id="icon-jygy" transform="translate(292, 432)">
                <rect id="矩形备份-11" fill="#EFF4F9" x="0" y="0" width="40" height="40" rx="5"></rect>
                <g id="亲子" transform="translate(10, 8)" fill-rule="nonzero">
                    <path d="M5.13767308,2.78070039 C5.13767308,3.77414895 5.66122531,4.69213328 6.51111274,5.18885756 C7.36100018,5.68558185 8.40810469,5.68558185 9.25799213,5.18885756 C10.1078796,4.69213328 10.6314318,3.77414895 10.6314318,2.78070039 C10.6314318,1.78725183 10.1078796,0.869267498 9.25799213,0.372543214 C8.40810469,-0.124181071 7.36100018,-0.124181071 6.51111274,0.372543214 C5.66122531,0.869267498 5.13767308,1.78725183 5.13767308,2.78070039 L5.13767308,2.78070039 Z" id="路径" fill="#17CAB6"></path>
                    <path d="M13.5111186,9.61198526 C13.5111186,10.9058577 14.5472521,11.9547486 15.8253875,11.9547486 C17.1035229,11.9547486 18.1396564,10.9058577 18.1396564,9.61198526 C18.1396564,8.77499652 17.6985592,8.00158702 16.9825219,7.58309265 C16.2664847,7.16459827 15.3842903,7.16459827 14.668253,7.58309265 C13.9522157,8.00158702 13.5111186,8.77499652 13.5111186,9.61198526 L13.5111186,9.61198526 Z" id="路径" fill="#15C5B1"></path>
                    <path d="M3.62419384,21.3417753 C2.99697438,18.2975141 2.54726986,11.1108213 3.3072968,8.99434765 C2.88520571,9.89285063 1.94371906,12.8053314 1.50979365,13.9035017 C1.2546981,14.5504239 0.205387558,14.3281276 0.101508444,13.6399408 C-0.131233368,12.0985091 -0.236427408,8.80532925 3.08638931,4.942432 C3.61761921,4.25557639 4.64063125,4.44991926 5.25075668,5.2512508 C5.8608821,6.05258235 6.68665531,6.84193385 8.67613759,6.47587708 C9.29809734,6.33877218 10.0778482,5.93810641 10.7221617,7.72313233 C11.3664751,9.50815825 12.3053319,12.3234676 15.1087531,12.9184762 C15.7859397,12.9810386 17.3927787,12.7614046 18.9075728,11.8402726 C19.1837072,11.6725521 19.5361072,11.7044989 19.768849,11.9294574 L19.7819983,11.9414374 C20.0502431,12.201005 20.0725968,12.6229686 19.839855,12.9144829 C19.4309132,13.4256312 18.6787758,14.0552489 17.7530683,14.6116552 C16.2829816,15.496847 16.169898,16.0079953 16.8036921,17.7477633 C17.4361712,19.4875313 18.7247982,20.7454355 17.934528,21.4322911 C17.1429428,22.1191467 15.8543159,21.6159851 14.068647,17.7477633 C14.0002709,19.5101603 14.5933023,21.8502614 13.5111186,22.0565843 C12.4289349,22.2629072 11.3099333,20.9411095 11.2757453,16.9584118 C11.2415572,16.0319554 11.4453707,14.3840344 11.4453707,14.3840344 C11.4453707,14.3840344 9.44405407,11.9467619 9.13899136,10.161736 C8.78133163,11.1720527 7.92794498,16.4712236 7.75437482,20.9757185 C7.7122972,22.064571 6.86285533,22.9431072 5.78724628,22.9950207 L5.73990896,22.997683 C4.72873126,23.0456031 3.83063714,22.3454364 3.62419384,21.3417753 L3.62419384,21.3417753 Z" id="路径" fill="#0DBFAA"></path>
                    <path d="M15.1074382,12.9198073 C12.304017,12.3247987 11.3651602,9.50948936 10.7208467,7.72446344 C10.0765332,5.93943753 9.29678242,6.3401033 8.67482266,6.4772082 C6.68534039,6.84326497 5.85956718,6.05391346 5.24944175,5.25258192 C4.63931632,4.45125037 3.61630429,4.2569075 3.08507439,4.94376311 C-0.237742333,8.80532925 -0.132548294,12.0985091 0.100193519,13.6412719 C0.204072633,14.3294587 1.25338318,14.5504239 1.50847872,13.9048328 C1.94240413,12.8066625 2.88257586,9.89418175 3.30598187,8.99567877 C2.54595494,11.1108213 2.99565945,18.2988452 3.62287892,21.3431064 C3.68599534,21.6466007 3.81222819,21.9221416 3.98579835,22.1577491 L4.01604164,22.1577491 C5.25338653,22.1577491 6.45259858,21.9993463 7.59789868,21.7025076 C7.68994347,21.477549 7.74517034,21.2339549 7.75568974,20.9783807 C7.92925991,16.4725547 8.78264655,11.1733838 9.14030629,10.1643982 C9.445369,11.9494241 11.4466856,14.3866966 11.4466856,14.3866966 C11.4466856,14.3866966 11.2428721,16.0346177 11.2770602,16.9610741 C11.2875796,18.2176471 11.4072378,19.2079971 11.597902,19.9707263 C12.4894215,19.4089955 13.3165097,18.7514244 14.0633873,18.0113242 C14.0633873,17.9234706 14.0647023,17.8369481 14.068647,17.7517567 C14.0962605,17.8116569 14.1238739,17.8675637 14.1501724,17.9261328 C15.6557621,16.4099922 16.8313055,14.5584105 17.5584593,12.489857 C16.5183532,12.8665627 15.5834412,12.9637341 15.1074382,12.9198073 L15.1074382,12.9198073 Z" id="路径" fill="#15C5B1"></path>
                    <path d="M10.7221617,7.72446344 C10.0778482,5.93943753 9.29809734,6.3401033 8.67613759,6.4772082 C6.68665531,6.84326497 5.8608821,6.05391346 5.25075668,5.25258192 C4.64063125,4.45125037 3.61761921,4.2569075 3.08638931,4.94376311 C-0.236427408,8.80532925 -0.131233368,12.0985091 0.101508444,13.6412719 C0.205387558,14.3294587 1.2546981,14.5504239 1.50979365,13.9048328 C1.94371906,12.8066625 2.88389079,9.89418175 3.3072968,8.99567877 C2.83129377,10.3214698 2.82997884,13.6386097 3.0495714,16.6802087 C4.99697606,16.2662318 6.79842398,15.4542513 8.36844502,14.3321209 C8.651154,12.2835341 8.95884657,10.6742154 9.13899136,10.1630671 C9.27837346,10.9750476 9.76752575,11.9228018 10.2606228,12.7148155 C10.901887,12.0639251 11.4808452,11.3530443 11.9897498,10.5916863 C11.3940886,9.63328311 11.0259094,8.56439734 10.7221617,7.72446344 L10.7221617,7.72446344 Z" id="路径" fill="#17CAB6"></path>
                    <path d="M7.88455244,5.85988577e-08 C6.36712842,5.85988577e-08 5.13767308,1.24459307 5.13767308,2.78070039 C5.13767308,4.3168077 6.36712842,5.56140072 7.88455244,5.56140072 C8.03313902,5.56140072 8.17778082,5.54675845 8.3211077,5.52279837 C9.17054957,4.27288089 9.83064217,2.88186517 10.2619377,1.39101578 C9.78724963,0.560399694 8.90098985,5.85988577e-08 7.88455244,5.85988577e-08 L7.88455244,5.85988577e-08 Z M7.54661659,6.56106848 C6.34345976,6.49983716 5.72938956,5.88086844 5.25075668,5.25258192 C4.64063125,4.45125037 3.61761921,4.2569075 3.08638931,4.94376311 C0.944375685,7.43294914 0.227741292,9.68652773 0.0502263499,11.3863623 C0.996972705,11.1401059 1.90558622,10.7993403 2.76686242,10.3733833 C2.9772505,9.78902362 3.16922962,9.28586195 3.30598187,8.99567877 C3.1942132,9.3071598 3.10874305,9.73045454 3.04694155,10.2322851 C4.7826432,9.3244643 6.31321647,8.0718846 7.54661659,6.56106848 L7.54661659,6.56106848 Z" id="形状" fill="#22D3C0"></path>
                </g>
            </g>
        </g>
    </g>
</svg>