<?xml version="1.0" encoding="UTF-8"?>
<svg width="40px" height="40px" viewBox="0 0 40 40" version="1.1" xmlns="http://www.w3.org/2000/svg" xmlns:xlink="http://www.w3.org/1999/xlink">
    <title>icon-zhrc</title>
    <g id="页面-1" stroke="none" stroke-width="1" fill="none" fill-rule="evenodd">
        <g id="0-1公众端首页" transform="translate(-292, -353)">
            <g id="icon-zhrc" transform="translate(292, 353)">
                <rect id="矩形备份-7" fill="#EFF4F9" x="0" y="0" width="40" height="40" rx="5"></rect>
                <g id="团队" transform="translate(9, 11)" fill-rule="nonzero">
                    <path d="M9.23007431,8.02518787 C8.60166564,7.64975232 8.11408678,7.21903792 7.74248542,6.67315923 C6.39809323,4.69578856 6.8726542,1.58404974 9.29753061,0.380583029 C10.8123387,-0.371439713 12.7520031,0.0189671928 13.8691741,1.35026626 C15.0869378,2.80248782 15.3188928,4.40096801 14.5401868,6.13188712 C14.228941,6.8228728 13.8005344,7.41366555 13.1591078,7.84668324 C13.1105866,7.88008088 13.0667992,7.91923673 13.0218283,7.95839259 C13.0099939,7.96875737 13.0040767,7.98603201 12.975674,8.03324937 C13.1200542,8.06779865 13.2561502,8.09428644 13.3898794,8.13229065 C15.0549848,8.59525105 16.4502651,9.43249536 17.4124049,10.8755038 C17.948505,11.6793504 18.2857865,12.5615088 18.4396342,13.5000977 C18.5508779,14.176112 18.6064998,14.8636428 18.6455534,15.5477186 C18.6786898,16.136208 18.3709944,16.4782459 17.7295679,16.6636604 C16.937844,16.8916857 16.1200843,16.9204768 15.3046915,16.9400547 C12.1661985,17.0149115 9.02652197,17.0402476 5.88921238,16.8928374 C5.40045008,16.8698045 4.90932089,16.7788247 4.43357647,16.6625088 C3.73652806,16.4920657 3.49510552,16.1258433 3.51640751,15.430251 C3.54362671,14.5262114 3.63356845,13.6325366 3.89747642,12.7595914 C4.57440629,10.5207978 6.05134419,9.03287531 8.31290534,8.27509435 C8.45728549,8.22672536 8.60284908,8.17835636 8.74959612,8.13804886 C8.8868756,8.09889301 9.02652197,8.07240522 9.23007431,8.02518787 Z" id="路径" fill="#2E8BFC"></path>
                    <path d="M6.49750251,1.13836398 C5.18387986,3.33569843 5.25488649,5.5042418 6.64898332,7.67163353 C3.70220819,9.07778938 2.39805309,11.53885 2.03236895,14.6102813 C1.48680134,14.6229494 0.945967511,14.643679 0.456021766,14.4029856 C0.287972742,14.321219 0.0927045104,14.1173782 0.0749528529,13.9526933 C0.0169641053,13.3976015 -0.036290867,12.8275383 0.0323488751,12.2782047 C0.228800551,10.7246386 0.938866848,9.41406907 2.17319876,8.39141028 C2.76255379,7.90311373 3.43593333,7.55531761 4.17795261,7.33880877 C4.25842679,7.31577591 4.33771752,7.29043977 4.46316257,7.25243556 C3.59806513,6.78602023 3.0382962,6.12152234 2.77083789,5.23360575 C2.5010127,4.33993094 2.5980551,3.47735049 3.04776375,2.6619874 C3.75546316,1.38020897 5.18861364,0.753715293 6.49750251,1.13836398 Z" id="路径" fill="#439BFE"></path>
                    <path d="M15.3685975,7.67048189 C16.8029314,5.48581552 16.7958307,3.29884586 15.5153445,1.07041706 C16.1804399,0.874637786 16.8266002,0.920703497 17.441991,1.22128227 C18.5946653,1.78328395 19.2289912,2.71265968 19.3248502,3.95182732 C19.4242595,5.23015082 18.9520654,6.28620726 17.8597467,7.04513985 C17.7567871,7.11654171 17.6396262,7.16721399 17.5047136,7.24091913 C17.5686195,7.27316513 17.6135904,7.30310784 17.663295,7.31923084 C20.0893549,8.11271272 21.4491318,9.80102105 21.9236928,12.1964381 C22.0278359,12.7227388 21.9994332,13.2801339 21.9864153,13.821406 C21.9769478,14.1841735 21.7213239,14.4202603 21.3651073,14.4870556 C20.9201325,14.5699738 20.4645066,14.6033715 19.9840284,14.6609536 C19.6538476,11.5319402 18.3283905,9.08585088 15.3685975,7.67048189 Z" id="路径" fill="#257DFF"></path>
                    <path d="M17.53785,11.0735863 C17.4964295,11.0067911 17.4561924,10.9399958 17.4124049,10.8732005 C16.4502651,9.43019207 15.0549848,8.59294776 13.3898794,8.12998736 C13.2561502,8.09313479 13.1212376,8.06549537 12.975674,8.03094608 C13.0040767,7.98372873 13.0088105,7.96645409 13.0218283,7.9560893 C13.0667992,7.91808509 13.1105866,7.87777759 13.1591078,7.84437995 C13.8005344,7.41136226 14.228941,6.82056951 14.5401868,6.12958384 C15.3188928,4.39866472 15.0881213,2.80018453 13.8691741,1.34796297 C12.7520031,0.0166639073 10.8123387,-0.372591356 9.29753061,0.378279743 C6.8726542,1.58174646 6.39809323,4.69348528 7.74248542,6.67085595 C8.11408678,7.21788627 8.60048219,7.64744903 9.23007431,8.02288458 C9.02652197,8.0689503 8.8868756,8.09658972 8.74959612,8.13344229 C8.60284908,8.17374979 8.45728549,8.22211879 8.31290534,8.27048778 C6.05134419,9.02826874 4.57440629,10.5161912 3.89747642,12.7549848 C3.63356845,13.62793 3.54362671,14.5216048 3.51640751,15.4256444 C3.49510552,16.120085 3.73652806,16.4874591 4.43357647,16.6579022 C4.64422948,16.7097261 4.85961625,16.7546402 5.07500303,16.7926444 C5.37323087,16.8110707 5.67264216,16.8214359 5.97442034,16.8214359 C10.7318645,16.8225871 14.9449246,14.5573058 17.53785,11.0735863 L17.53785,11.0735863 Z" id="路径" fill="#439BFE"></path>
                    <path d="M17.663295,7.3180792 C17.6135904,7.3019562 17.569803,7.27201348 17.5047136,7.23976749 C17.6396262,7.16606235 17.7567871,7.11539007 17.8597467,7.04398821 C18.9520654,6.28505561 19.4242595,5.22899917 19.3248502,3.95067568 C19.2289912,2.71150804 18.5946653,1.7821323 17.441991,1.22013062 C16.8266002,0.919551855 16.1804399,0.873486143 15.5153445,1.06926542 C16.7958307,3.29769422 16.8017479,5.48466387 15.3685975,7.66933025 C16.6112135,8.26357793 17.5650692,9.03978517 18.2786858,9.97146418 C18.6491037,9.35994186 18.9721839,8.71847683 19.244376,8.05167565 C18.7780991,7.75800674 18.2526501,7.51040354 17.663295,7.3180792 L17.663295,7.3180792 Z" id="路径" fill="#439BFE"></path>
                    <path d="M6.49750251,1.13836398 C5.18861364,0.753715293 3.7566466,1.38020897 3.04894719,2.6619874 C2.59923854,3.47735049 2.50219615,4.33993094 2.77202134,5.23360575 C3.03947964,6.12152234 3.60043202,6.78602023 4.46434601,7.25243556 C4.33890097,7.29043977 4.25961023,7.31577591 4.17913605,7.33880877 C3.43593333,7.55531761 2.76373723,7.90311373 2.17438221,8.39141028 C1.07969666,9.29775315 0.399216462,10.4321213 0.121107162,11.7611171 C0.758983386,11.8463386 1.40987749,11.8912527 2.07142259,11.8912527 C2.27852526,11.8912527 2.48444449,11.8854945 2.69036371,11.877433 C3.39569624,10.0797186 4.6394957,8.62980033 6.64898332,7.67163353 C5.25488649,5.50539344 5.18387986,3.33569843 6.49750251,1.13836398 Z" id="路径" fill="#4FA9FF"></path>
                    <path d="M8.31290534,8.27279107 C6.42057866,8.90734625 5.0797368,10.0543825 4.29511355,11.7231129 C9.03598952,11.0010328 13.0017098,8.00791323 14.9827948,3.92418789 C14.9236226,3.02245159 14.5508378,2.16332607 13.8691741,1.35026626 C12.7520031,0.0189671928 10.8123387,-0.37028807 9.29753061,0.380583029 C6.8726542,1.58404974 6.39809323,4.69578856 7.74248542,6.67315923 C8.11408678,7.22018956 8.60048219,7.64975232 9.23007431,8.02518787 C9.02652197,8.07125358 8.8868756,8.09889301 8.74959612,8.13574558 C8.60284908,8.17720472 8.45846894,8.22442207 8.31290534,8.27279107 Z" id="路径" fill="#4FA9FF"></path>
                    <path d="M15.5153445,1.07041706 C15.6336889,1.27540948 15.7366485,1.48040189 15.8336909,1.68539431 C15.8999637,1.44930754 15.9603194,1.20976584 16.0147578,0.967920852 C15.8490756,0.987498779 15.6833935,1.02204806 15.5153445,1.07041706 Z" id="路径" fill="#4FA9FF"></path>
                    <path d="M3.04894719,2.6619874 C2.59923854,3.47735049 2.50219615,4.33993094 2.77202134,5.23360575 C2.87853128,5.58716008 3.03356242,5.90386185 3.23356443,6.18716598 C4.06364998,5.90229479 4.86473538,5.54297287 5.62648785,5.1138349 C5.4170183,3.7952039 5.70104481,2.47196634 6.49868596,1.13836398 C5.18861364,0.753715293 3.75546316,1.38020897 3.04894719,2.6619874 L3.04894719,2.6619874 Z M9.29871405,0.380583029 C7.74958608,1.14872877 6.99809925,2.69538504 7.00638336,4.22822159 C8.56852921,3.09385344 9.88451875,1.65660324 10.8608599,0.00399583658 C10.3235764,0.0155122645 9.7886598,0.1375864 9.29871405,0.380583029 Z" id="形状" fill="#57B4FF"></path>
                </g>
            </g>
        </g>
    </g>
</svg>