<?xml version="1.0" encoding="UTF-8"?>
<svg width="40px" height="40px" viewBox="0 0 40 40" version="1.1" xmlns="http://www.w3.org/2000/svg" xmlns:xlink="http://www.w3.org/1999/xlink">
    <title>icon-jgsp</title>
    <g id="页面-1" stroke="none" stroke-width="1" fill="none" fill-rule="evenodd">
        <g id="0-1公众端首页" transform="translate(-209, -432)">
            <g id="icon-jgsp" transform="translate(209, 432)">
                <rect id="矩形备份-10" fill="#EFF4F9" x="0" y="0" width="40" height="40" rx="5"></rect>
                <g id="厨艺" transform="translate(9, 10)" fill-rule="nonzero">
                    <path d="M21.9921701,7.35327671 C21.8683796,5.32260109 20.2208184,3.66332869 18.1776382,3.51375333 C17.2983433,3.44910635 16.4726484,3.65952592 15.7771249,4.06515401 C15.428725,1.76448219 13.4302115,0.00126758778 11.0182124,0.00126758778 C8.59855623,0.00126758778 6.59749034,1.77462289 6.25674761,4.08290024 C5.55994789,3.66839904 4.72914821,3.45164153 3.84474855,3.51248574 C1.79646364,3.6519204 0.138692852,5.30739004 0.00852147382,7.34186842 C-0.128030854,9.48789454 1.39446379,11.3056154 3.42360586,11.6554696 L3.42360586,18.7400177 C3.42360586,19.4359234 3.9915104,20 4.6921387,20 L17.2740957,20 C17.974724,20 18.5426286,19.4359234 18.5426286,18.7400177 L18.5426286,11.6618076 C20.5845325,11.3258968 22.1236176,9.50564077 21.9921701,7.35327671 Z M14.2201731,16.7068069 L7.77924226,16.7068069 C7.1857836,16.7068069 6.7046903,16.2289565 6.7046903,15.639498 C6.7046903,15.0500396 7.1857836,14.5721891 7.77924226,14.5721891 L14.2201731,14.5721891 C14.8136318,14.5721891 15.2947251,15.0500396 15.2947251,15.639498 C15.2947251,16.2289565 14.8136318,16.7068069 14.2201731,16.7068069 L14.2201731,16.7068069 Z" id="形状" fill="#2E8BFC"></path>
                    <path d="M19.4665901,3.8281151 C19.0645903,3.65825833 18.6319618,3.54671061 18.1776382,3.51375333 C17.2983433,3.44910635 16.4726484,3.65952592 15.7771249,4.06515401 C15.428725,1.76448219 13.4302115,0.00126758778 11.0182124,0.00126758778 C8.59855623,0.00126758778 6.59749034,1.77462289 6.25674761,4.08290024 C5.55994789,3.66839904 4.72914821,3.45164153 3.84474855,3.51248574 C1.79646364,3.6519204 0.138692852,5.30739004 0.00852147382,7.34186842 C-0.128030854,9.48789454 1.39446379,11.3056154 3.42360586,11.6554696 L3.42360586,18.7400177 C3.42360586,19.4359234 3.9915104,20 4.6921387,20 L8.99162274,20 C15.1313727,18.2608696 19.62739,12.6467233 19.62739,5.98935226 C19.62739,5.25541894 19.5725139,4.5328939 19.4665901,3.8281151 Z M14.2201731,16.7068069 L7.77924226,16.7068069 C7.1857836,16.7068069 6.7046903,16.2289565 6.7046903,15.639498 C6.7046903,15.0500396 7.1857836,14.5721891 7.77924226,14.5721891 L14.2201731,14.5721891 C14.8136318,14.5721891 15.2947251,15.0500396 15.2947251,15.639498 C15.2947251,16.2289565 14.8136318,16.7068069 14.2201731,16.7068069 L14.2201731,16.7068069 Z" id="形状" fill="#439BFE"></path>
                    <path d="M15.4593536,2.94207124 C14.7332015,1.21434909 13.0180021,0 11.0169362,0 C8.59728004,0 6.59621415,1.7733553 6.25547142,4.08163265 C5.5586717,3.66713145 4.72787202,3.45037394 3.84347236,3.51121815 C1.79646364,3.6519204 0.138692852,5.30739004 0.00852147382,7.34186842 C-0.128030854,9.48789454 1.39446379,11.3056154 3.42360586,11.6554696 L3.42360586,15.1755609 C9.65141296,14.1247306 14.541773,9.17480035 15.4593536,2.94207124 Z" id="路径" fill="#4FA9FF"></path>
                    <path d="M11.2632409,0.0063379389 C11.1815647,0.00253517556 11.0998886,0 11.0182124,0 C8.59855623,0 6.59749034,1.7733553 6.25674761,4.08163265 C5.55994789,3.66713145 4.72914821,3.45037394 3.84474855,3.51121815 C1.79646364,3.6519204 0.138692852,5.30739004 0.00852147382,7.34186842 C-0.0501832653,8.26340474 0.197397591,9.12409684 0.659378364,9.833946 C5.70032878,8.64621625 9.73308912,4.8751426 11.2632409,0.0063379389 Z" id="路径" fill="#57B4FF"></path>
                </g>
            </g>
        </g>
    </g>
</svg>