<?xml version="1.0" encoding="UTF-8"?>
<svg width="40px" height="40px" viewBox="0 0 40 40" version="1.1" xmlns="http://www.w3.org/2000/svg" xmlns:xlink="http://www.w3.org/1999/xlink">
    <title>icon-vrykt</title>
    <g id="页面-1" stroke="none" stroke-width="1" fill="none" fill-rule="evenodd">
        <g id="0-1公众端首页" transform="translate(-43, -353)">
            <g id="icon-vrykt" transform="translate(43, 353)">
                <rect id="矩形备份-4" fill="#EFF4F9" x="0" y="0" width="40" height="40" rx="5"></rect>
                <g id="vr云看托" transform="translate(7.0474, 13.5)" fill-rule="nonzero">
                    <path d="M5.34724857,0 C5.57704207,0 5.77724994,0.15662867 5.83255287,0.379668213 L7.39981256,6.70055936 C7.54575849,7.27182139 7.64783291,7.71159099 7.86616129,8.68651647 C7.88641936,8.77697704 7.90578338,8.86328936 7.92435852,8.94588432 L7.94705277,9.047 L8.00451908,8.80369066 C8.01864393,8.74302145 8.01864393,8.74302145 8.0327792,8.6823361 C8.19245072,7.99695492 8.30307608,7.53122863 8.41369974,7.08673383 L8.5096635,6.70630987 L10.0457848,0.381985811 C10.1002327,0.157819683 10.300974,0 10.5316579,0 L12.9318473,0 C13.2628224,0 13.5024688,0.315783853 13.4134035,0.634549994 L10.8252694,9.89983628 C11.6951826,9.84770751 12.5912841,9.76607897 13.5003102,9.6544646 L13.791,9.616 L13.7919547,0.5 C13.7919547,0.223857625 14.0158123,0 14.2919547,0 L18.4202806,0 C20.9454384,0 22.6463991,0.942257655 23.1852505,2.93383661 C25.04479,3.40380028 26.1764368,4.17023584 26.316406,5.31019388 C26.4988142,6.79578943 24.7083212,8.20581539 21.7630005,9.30634177 L23.8242713,13.2693058 C23.9840573,13.5765562 23.7905517,13.9391784 23.4647507,13.9931484 L23.3806722,14 L20.7404638,14 C20.550277,14 20.376558,13.8921015 20.2922608,13.7216169 L18.5836862,10.2659136 C18.1230538,10.37796 17.6478671,10.4837213 17.1598331,10.5827091 L17.1601417,13.5 C17.1601417,13.7454599 16.9832665,13.9496084 16.7500173,13.9919443 L16.6601417,14 L14.2919547,14 C14.0158123,14 13.7919547,13.7761424 13.7919547,13.5 L13.7914486,11.1298602 C13.7553783,11.1343703 13.7192666,11.1388449 13.6831142,11.1432838 C12.5519016,11.2821793 11.4509502,11.3775572 10.396823,11.4299838 L9.78111671,13.63455 C9.72075128,13.8505986 9.523884,14 9.29956059,14 L6.48333826,14 C6.25880292,14 6.06180422,13.8503215 6.00162878,13.6339999 L5.35523133,11.3106033 C2.25543489,10.9515835 0.195491165,10.018404 0.0139330088,8.53973148 C-0.152938677,7.18067067 1.1875193,5.97475559 3.58329787,4.94445564 L2.3853433,0.633999922 C2.29670561,0.315360822 2.53631494,0 2.86705277,0 L5.34724857,0 Z M1.50275224,8.35692747 C1.55924587,8.81703122 2.7317821,9.40174697 4.80652759,9.71708768 L4.916,9.732 L3.9902393,6.40756513 C2.33270619,7.15298435 1.4476253,7.9079546 1.50275224,8.35692747 Z M23.3674048,4.54804537 L23.3686318,4.43513497 C23.3686318,5.6339339 23.0513661,6.62997722 22.4609955,7.38958401 C24.061808,6.65121529 24.8788962,5.91087974 24.8275868,5.4929979 C24.7912745,5.19725773 24.2869713,4.84506482 23.3674048,4.54804537 Z M18.1962629,3.05540532 L17.1599547,3.055 L17.1599547,6.025 L18.1962629,6.02567542 C19.4692509,6.02567542 20.0484486,5.51759991 20.0484486,4.43513497 C20.0484486,3.41461732 19.5625544,3.05540532 18.1962629,3.05540532 Z" id="形状结合" fill="#22D3C0"></path>
                    <path d="M18.4202806,0 C20.9454384,0 22.6463991,0.942257655 23.1852505,2.93383661 C25.04479,3.40380028 26.1764368,4.17023584 26.316406,5.31019388 C26.4988142,6.79578943 24.7083212,8.20581539 21.7630005,9.30634177 L23.8242713,13.2693058 C23.9840573,13.5765562 23.7905517,13.9391784 23.4647507,13.9931484 L23.3806722,14 L20.7404638,14 C20.550277,14 20.376558,13.8921015 20.2922608,13.7216169 L18.5836862,10.2659136 C18.1230538,10.37796 17.6478671,10.4837213 17.1598331,10.5827091 L17.1601417,13.5 C17.1601417,13.7454599 16.9832665,13.9496084 16.7500173,13.9919443 L16.6601417,14 L14.2919547,14 C14.0158123,14 13.7919547,13.7761424 13.7919547,13.5 L13.7914486,11.1298602 L13.6831142,11.1432838 C12.5519016,11.2821793 11.4509502,11.3775572 10.396823,11.4299838 L9.78111671,13.63455 C9.72075128,13.8505986 9.523884,14 9.29956059,14 L6.48333826,14 C6.25880292,14 6.06180422,13.8503215 6.00162878,13.6339999 L5.35523133,11.3106033 C2.25543489,10.9515835 0.195491165,10.018404 0.0139330088,8.53973148 C-0.0832678255,7.74809421 0.330957484,7.0084182 1.16727651,6.32514415 C3.18639732,6.06541959 5.11455004,5.51840776 6.91081951,4.72705804 L7.39981256,6.70055936 C7.54575849,7.27182139 7.64783291,7.71159099 7.86616129,8.68651647 C7.88641936,8.77697704 7.90578338,8.86328936 7.92435852,8.94588432 L7.94705277,9.047 L8.00451908,8.80369066 C8.01864393,8.74302145 8.01864393,8.74302145 8.0327792,8.6823361 C8.19245072,7.99695492 8.30307608,7.53122863 8.41369974,7.08673383 L8.5096635,6.70630987 L9.29035309,3.49093571 C10.7839588,2.58925004 12.1561808,1.50682236 13.3767216,0.273950115 C13.4319993,0.37954723 13.4490951,0.506809151 13.4134035,0.634549994 L10.8252694,9.89983628 C11.6951826,9.84770751 12.5912841,9.76607897 13.5003102,9.6544646 L13.791,9.616 L13.7919547,0.5 C13.7919547,0.223857625 14.0158123,0 14.2919547,0 L18.4202806,0 Z M3.9902393,6.40756513 C2.33270619,7.15298435 1.4476253,7.9079546 1.50275224,8.35692747 C1.55924587,8.81703122 2.7317821,9.40174697 4.80652759,9.71708768 L4.916,9.732 L3.9902393,6.40756513 Z M23.368,4.459 L23.3686318,4.43513497 C23.3686318,5.6339339 23.0513661,6.62997722 22.4609955,7.38958401 C24.061808,6.65121529 24.8788962,5.91087974 24.8275868,5.4929979 C24.7912745,5.19725773 24.2869713,4.84506482 23.3674048,4.54804537 L23.368,4.459 Z M18.1962629,3.05540532 L17.1599547,3.055 L17.1599547,6.025 L18.1962629,6.02567542 C19.4692509,6.02567542 20.0484486,5.51759991 20.0484486,4.43513497 C20.0484486,3.41461732 19.5625544,3.05540532 18.1962629,3.05540532 Z" id="形状结合" fill="#17CAB6"></path>
                    <path d="M23.1852505,2.93383661 C25.04479,3.40380028 26.1764368,4.17023584 26.316406,5.31019388 C26.4988142,6.79578943 24.7083212,8.20581539 21.7630005,9.30634177 L23.8242713,13.2693058 C23.9840573,13.5765562 23.7905517,13.9391784 23.4647507,13.9931484 L23.3806722,14 L20.7404638,14 C20.550277,14 20.376558,13.8921015 20.2922608,13.7216169 L18.5836862,10.2659136 C18.1230538,10.37796 17.6478671,10.4837213 17.1598331,10.5827091 L17.1601417,13.5 C17.1601417,13.7454599 16.9832665,13.9496084 16.7500173,13.9919443 L16.6601417,14 L14.2919547,14 C14.0158123,14 13.7919547,13.7761424 13.7919547,13.5 L13.7914486,11.1298602 C13.7553783,11.1343703 13.7192666,11.1388449 13.6831142,11.1432838 C12.5519016,11.2821793 11.4509502,11.3775572 10.396823,11.4299838 L9.78111671,13.63455 C9.72075128,13.8505986 9.523884,14 9.29956059,14 L6.48333826,14 C6.25880292,14 6.06180422,13.8503215 6.00162878,13.6339999 L5.35523133,11.3106033 C2.25543489,10.9515835 0.195491165,10.018404 0.0139330088,8.53973148 C-0.0498761427,8.02004765 0.10671333,7.52275647 0.458428933,7.04911423 C0.892147956,7.31244206 1.34092791,7.55143771 1.80385589,7.76499569 C1.5858726,7.99211817 1.48281333,8.19453814 1.50275224,8.35692747 C1.55924587,8.81703122 2.7317821,9.40174697 4.80652759,9.71708768 L4.916,9.732 L4.63030983,8.7045422 C5.5405127,8.89813559 6.48464271,9 7.45256444,9 C7.61394635,9 7.77466687,8.99716827 7.93467903,8.99155179 L7.94705277,9.047 L7.96067476,8.99061461 C9.09042887,8.94881074 10.1847104,8.76818152 11.2269615,8.46528485 L10.8252694,9.89983628 C11.6951826,9.84770751 12.5912841,9.76607897 13.5003102,9.6544646 L13.791,9.616 L13.7917167,7.42213762 C15.0454043,6.75414542 16.1813016,5.89418975 17.1601812,4.88149824 L17.1599547,6.025 L18.1962629,6.02567542 C19.4692509,6.02567542 20.0484486,5.51759991 20.0484486,4.43513497 C20.0484486,3.53174492 19.6676886,3.14657203 18.6325065,3.07005751 C19.2391607,2.17521301 19.741729,1.20347788 20.1220643,0.172562339 C21.7084825,0.524123651 22.7782901,1.42972276 23.1852505,2.93383661 Z M23.368,4.45870246 L23.3686318,4.43513497 C23.3686318,5.6339339 23.0513661,6.62997722 22.4609955,7.38958401 C24.061808,6.65121529 24.8788962,5.91087974 24.8275868,5.4929979 C24.7912745,5.19725773 24.2869713,4.84506482 23.3674048,4.54804537 L23.368,4.45870246 Z" id="形状结合" fill="#15C5B1"></path>
                    <path d="M26.316406,5.31019388 C26.4988142,6.79578943 24.7083212,8.20581539 21.7630005,9.30634177 L23.8242713,13.2693058 C23.9840573,13.5765562 23.7905517,13.9391784 23.4647507,13.9931484 L23.3806722,14 L20.7404638,14 C20.550277,14 20.376558,13.8921015 20.2922608,13.7216169 L18.9030985,10.9116606 C20.7875513,9.53624496 22.3022264,7.68450814 23.2700321,5.53354209 C23.1347635,6.25366728 22.8603693,6.87572529 22.4609955,7.38958401 C24.061808,6.65121529 24.8788962,5.91087974 24.8275868,5.4929979 C24.7949526,5.22721365 24.3843328,4.91583382 23.6340007,4.6398841 C23.8051067,4.17265184 23.9512805,3.69241421 24.0706349,3.20168113 C25.4014687,3.67568165 26.2002736,4.36437102 26.316406,5.31019388 Z M17.1597914,11.9914954 L17.1601417,13.5 C17.1601417,13.7454599 16.9832665,13.9496084 16.7500173,13.9919443 L16.6601417,14 L14.2919547,14 C14.0158123,14 13.7919547,13.7761424 13.7919547,13.5 L13.7914759,13.2009884 C14.9797578,12.946673 16.1100573,12.5359811 17.1597914,11.9914954 Z M9.83238629,13.4541889 L9.78111671,13.63455 C9.72075128,13.8505986 9.523884,14 9.29956059,14 L6.48333826,14 C6.25880292,14 6.06180422,13.8503215 6.00162878,13.6339999 L5.66551456,12.4254168 C6.96281539,12.9781256 8.36432571,13.3336027 9.83238629,13.4541889 Z M2.70311685,10.6871054 L2.91238558,10.8458564 C1.20664116,10.3557912 0.142118669,9.58371991 0.0139330088,8.53973148 C-0.0107997589,8.33829926 -0.00242030066,8.14023125 0.03759969,7.94560063 C0.792180106,8.98078372 1.69049279,9.90430498 2.70311685,10.6871054 Z" id="形状结合" fill="#0DBFAA"></path>
                </g>
            </g>
        </g>
    </g>
</svg>