<?xml version="1.0" encoding="UTF-8"?>
<svg width="40px" height="40px" viewBox="0 0 40 40" version="1.1" xmlns="http://www.w3.org/2000/svg" xmlns:xlink="http://www.w3.org/1999/xlink">
    <title>icon-rttj</title>
    <g id="页面-1" stroke="none" stroke-width="1" fill="none" fill-rule="evenodd">
        <g id="0-1公众端首页" transform="translate(-209, -274)">
            <g id="icon-rttj" transform="translate(209, 274)">
                <rect id="矩形备份-2" fill="#EFF4F9" x="0" y="0" width="40" height="40" rx="5"></rect>
                <g id="查看病例" transform="translate(11, 8)" fill-rule="nonzero">
                    <path d="M13.4701421,2.43828572 L12.5245427,2.43828572 C12.2827782,1.0549603 11.0524976,0 9.56614699,0 C8.07979635,0 6.84951575,1.0549603 6.6077513,2.43828572 L5.1514424,2.43828572 C4.74516369,2.43828572 4.41470459,2.76106165 4.41470459,3.15789439 L4.41470459,5.15882571 C4.41470459,5.63033844 4.80603971,6.01257504 5.28877605,6.01257504 L13.3328084,6.01257504 C13.8155448,6.01257504 14.2068799,5.63033844 14.2068799,5.15882571 L14.2068799,3.15789439 C14.2068799,2.76106165 13.8764208,2.43828572 13.4701421,2.43828572 L13.4701421,2.43828572 Z M9.56614699,4.35118723 C8.76503404,4.35118723 8.11556032,3.71681376 8.11556032,2.93432665 C8.11556032,2.15183954 8.76503404,1.51746607 9.56614699,1.51746607 C10.3672599,1.51746607 11.0167337,2.15183954 11.0167337,2.93432665 C11.0167337,3.71681376 10.3672599,4.35118723 9.56614699,4.35118723 Z" id="形状" fill="#15C5B1"></path>
                    <path d="M20.7688533,22.335815 L19.994921,21.3982278 C20.5499778,20.6995786 20.8818675,19.8220752 20.8818675,18.8719123 C20.8818675,16.5943159 18.9849464,14.7401009 16.6517049,14.7401009 C14.3184635,14.7401009 12.4215424,16.5929186 12.4215424,18.8719123 C12.4215424,21.150906 14.3184635,23.0037236 16.6517049,23.0037236 C17.2539702,23.0037236 17.8261938,22.8793641 18.3454866,22.6571936 L19.1394468,23.6199322 C19.3382815,23.8607223 19.638151,24.000491 19.9548653,23.9999987 C20.3575542,23.9991222 20.7240761,23.7728416 20.8976677,23.417937 C21.0712593,23.0630323 21.0211817,22.6423489 20.7688533,22.335815 L20.7688533,22.335815 Z M14.51445,18.870515 C14.51445,17.7191411 15.4729245,16.7829511 16.6517049,16.7829511 C17.8304854,16.7829511 18.7889599,17.7191411 18.7889599,18.870515 C18.7889599,20.0218888 17.8304854,20.9580788 16.6517049,20.9580788 C15.4729245,20.9580788 14.51445,20.0218888 14.51445,18.870515 Z" id="形状" fill="#0DBFAA"></path>
                    <path d="M16.3584404,3.71821106 L15.0881041,3.71821106 L15.0881041,6.17466165 C15.0881041,6.64617438 14.696769,7.02841098 14.2140327,7.02841098 L4.4075518,7.02841098 C4.17573364,7.02841098 3.95341014,6.93846264 3.78948995,6.77835359 C3.62556975,6.61824453 3.53348035,6.40109005 3.53348035,6.17466165 L3.53348035,3.71821106 L2.26314409,3.71821106 C1.01426622,3.71821106 0,4.70749833 0,5.92873713 L0,20.7680462 C0,21.9878877 1.01283566,22.9785723 2.26314409,22.9785723 L13.3199334,22.9785723 C12.0810694,22.0186283 11.2871093,20.5360947 11.2871093,18.8719123 C11.2871093,15.97671 13.6890176,13.6306459 16.6531355,13.6306459 C17.3483871,13.6306459 18.0121664,13.7605947 18.6215845,13.9967381 L18.6215845,5.92733983 C18.6215845,4.70749833 17.6073183,3.71821106 16.3584404,3.71821106 L16.3584404,3.71821106 Z M12.2112503,13.2212375 L10.3944406,13.2212375 L10.3944406,14.9958065 C10.3944406,15.560315 9.92664782,16.0172316 9.34870205,16.0172316 C8.77075627,16.0172316 8.30153297,15.560315 8.30153297,14.9958065 L8.30153297,13.2212375 L6.48472324,13.2212375 C5.90677747,13.2212375 5.43898473,12.7643209 5.43898473,12.1998124 C5.43898473,11.6353038 5.90677747,11.1783872 6.48472324,11.1783872 L8.30153297,11.1783872 L8.30153297,9.40381826 C8.30153297,8.83930971 8.76932572,8.38239313 9.34727149,8.38239313 C9.92521726,8.38239313 10.39301,8.83930971 10.39301,9.40381826 L10.39301,11.1783872 L12.2098197,11.1783872 C12.7877655,11.1783872 13.2555583,11.6353038 13.2555583,12.1998124 C13.2555583,12.7643209 12.7877655,13.2212375 12.2112503,13.2212375 Z" id="形状" fill="#0DBFAA"></path>
                    <path d="M16.3584404,3.71820686 L15.0881041,3.71820686 L15.0881041,6.17466165 C15.0881041,6.64617438 14.696769,7.02841098 14.2140327,7.02841098 L4.4075518,7.02841098 C4.17573364,7.02841098 3.95341014,6.93846264 3.78948995,6.77835359 C3.62556975,6.61824453 3.53348035,6.40109005 3.53348035,6.17466165 L3.53348035,3.71820686 L2.26314409,3.71820686 C1.01426622,3.71820686 0,4.70749833 0,5.92873713 L0,20.7680462 C0,21.9878877 1.01283566,22.9785723 2.26314409,22.9785723 L3.3718272,22.9785723 C6.36741742,22.7564018 9.1312571,21.7293875 11.4387485,20.1155078 C11.34004,19.7172778 11.2856787,19.3008829 11.2856787,18.8733096 C11.2856787,15.9781073 13.687587,13.6320432 16.6517049,13.6320432 C16.7046356,13.6320432 16.7575663,13.6348378 16.810497,13.6362351 C17.6602489,11.7289228 18.1337639,9.62598871 18.1337639,7.41266804 C18.1337639,6.32137798 18.0178886,5.2552393 17.8004437,4.22682767 C17.3957799,3.89725094 16.8853229,3.71720496 16.3584404,3.71820686 L16.3584404,3.71820686 Z M12.2112503,13.2212375 L10.3944406,13.2212375 L10.3944406,14.9958065 C10.3944406,15.560315 9.92664782,16.0172316 9.34870205,16.0172316 C8.77075627,16.0172316 8.30153297,15.560315 8.30153297,14.9958065 L8.30153297,13.2212375 L6.48472324,13.2212375 C5.90677747,13.2212375 5.43898473,12.7643209 5.43898473,12.1998124 C5.43898473,11.6353038 5.90677747,11.1783872 6.48472324,11.1783872 L8.30153297,11.1783872 L8.30153297,9.40381826 C8.30153297,8.83930971 8.76932572,8.38239313 9.34727149,8.38239313 C9.92521726,8.38239313 10.39301,8.83930971 10.39301,9.40381826 L10.39301,11.1783872 L12.2098197,11.1783872 C12.7877655,11.1783872 13.2555615,11.6353038 13.2555615,12.1998124 C13.2569888,12.7643209 12.7877655,13.2212375 12.2112503,13.2212375 Z" id="形状" fill="#15C5B1"></path>
                    <path d="M12.422973,18.870515 C12.422973,19.0312043 12.4344175,19.189099 12.4530147,19.3441991 C13.9980183,18.069863 15.2941046,16.5146698 16.2540096,14.7582658 C14.1081713,14.9552848 12.422973,16.7242646 12.422973,18.870515 Z" id="路径" fill="#15C5B1"></path>
                    <path d="M13.7433788,2.49138306 C13.6589758,2.45784789 13.5674201,2.43828572 13.4701421,2.43828572 L12.5245427,2.43828572 C12.2827782,1.0549603 11.0524976,0 9.56614699,0 C8.07979635,0 6.84951575,1.0549603 6.6077513,2.43828572 L5.1514424,2.43828572 C4.74455334,2.43828572 4.41470459,2.7604655 4.41470459,3.15789439 L4.41470459,5.15882571 C4.41470459,5.63033844 4.80603971,6.01257504 5.28877605,6.01257504 L13.1840303,6.01257504 C13.5030449,4.88495522 13.6947398,3.70563537 13.7433788,2.49138306 Z M9.56614699,4.35118723 C8.76503404,4.35118723 8.11556032,3.71681376 8.11556032,2.93432665 C8.11556032,2.15183954 8.76503404,1.51746607 9.56614699,1.51746607 C10.3672599,1.51746607 11.0167337,2.15183954 11.0167337,2.93432665 C11.0167337,3.71681376 10.3672599,4.35118723 9.56614699,4.35118723 L9.56614699,4.35118723 Z" id="形状" fill="#17CAB6"></path>
                    <path d="M8.30153297,13.6096865 L8.30153297,13.2226348 L6.48472324,13.2226348 C5.90677747,13.2226348 5.43898473,12.7657182 5.43898473,12.2012097 C5.43898473,11.6367011 5.90677747,11.1797845 6.48472324,11.1797845 L8.30153297,11.1797845 L8.30153297,9.40521556 C8.30153297,8.84070701 8.76932572,8.38379043 9.34727149,8.38379043 C9.92521726,8.38379043 10.39301,8.84070701 10.39301,9.40521556 L10.39301,11.1797845 L10.6033022,11.1797845 C11.5574849,9.92780517 12.3214033,8.53050676 12.8592935,7.02980827 L4.4075518,7.02980827 C3.92481547,7.02980827 3.53348035,6.64757168 3.53348035,6.17605895 L3.53348035,3.71821106 L2.26314409,3.71821106 C1.01426622,3.71821106 0,4.70749833 0,5.92873713 L0,17.3265002 C3.15724337,16.8961323 6.0169305,15.5659042 8.30153297,13.6096865 L8.30153297,13.6096865 Z" id="路径" fill="#17CAB6"></path>
                    <path d="M8.11556032,2.93432665 C8.11556032,2.4508614 8.36447756,2.02468539 8.7421451,1.76897978 C8.95815948,1.19888203 9.13984046,0.612016701 9.28718802,0.013972984 C7.92815712,0.135537945 6.8337796,1.1429901 6.6077513,2.43968301 L5.1514424,2.43968301 C4.74455334,2.43968301 4.41470459,2.76186279 4.41470459,3.15929169 L4.41470459,5.16022301 C4.41470459,5.63173574 4.80603971,6.01397298 5.28877605,6.01397298 L6.29445892,6.01397298 C7.00687722,5.13367434 7.62773976,4.17792223 8.13558815,3.15789439 C8.12414368,3.08383758 8.11556032,3.00978076 8.11556032,2.93432665 L8.11556032,2.93432665 Z" id="路径" fill="#22D3C0"></path>
                    <path d="M5.39892908,7.02841098 L4.40898236,7.02841098 C3.92624602,7.02841098 3.5349109,6.64617438 3.5349109,6.17466165 L3.5349109,3.71821106 L2.26457465,3.71821106 C1.01569678,3.71821106 0.00143055884,4.70749833 0.00143055884,5.92873713 L0.00143055884,10.7144842 C2.05714362,9.85933754 3.8896895,8.59478249 5.39892908,7.02841098 Z" id="路径" fill="#22D3C0"></path>
                </g>
            </g>
        </g>
    </g>
</svg>