<?xml version="1.0" encoding="UTF-8"?>
<svg width="40px" height="40px" viewBox="0 0 40 40" version="1.1" xmlns="http://www.w3.org/2000/svg" xmlns:xlink="http://www.w3.org/1999/xlink">
    <title>icon-wyrt</title>
    <g id="页面-1" stroke="none" stroke-width="1" fill="none" fill-rule="evenodd">
        <g id="0-1公众端首页" transform="translate(-126, -274)">
            <g id="icon-wyrt" transform="translate(126, 274)">
                <rect id="矩形备份" fill="#EFF4F9" x="0" y="0" width="40" height="40" rx="5"></rect>
                <g id="教育" transform="translate(8, 10)" fill-rule="nonzero">
                    <path d="M3.72663616,9.941663 L10.951143,13.1850528 C11.618871,13.484575 12.3814406,13.4830832 13.0480121,13.1809507 L19.7398301,10.1495025 L18.9116549,17.5797639 C18.9116549,17.5797639 17.4179577,20 12.0002552,20 C6.58255284,20 4.67815657,17.6207849 4.67815657,17.6207849 L3.72663616,9.941663 L3.72663616,9.941663 Z" id="路径" fill="#0DBFAA"></path>
                    <path d="M23.3805478,7.05925756 C24.2005903,6.67229326 24.2100784,5.49362462 23.387325,5.09708877 L13.3326549,0.260718735 C12.6236615,-0.0797428556 11.8014569,-0.0852524006 11.0880427,0.24567772 L0.625384442,5.10802769 C-0.21363427,5.49772672 -0.206857059,6.70374266 0.63622798,7.08523749 L10.9023471,11.7165028 C11.5892032,12.0268952 12.3747103,12.0268952 13.0615665,11.7165028 L22.0576363,7.65816343 L23.3805478,7.05925756 Z" id="路径" fill="#0DBFAA"></path>
                    <path d="M18.7896651,10.5802225 L13.0480121,13.1809507 C12.3814406,13.4830832 11.618871,13.484575 10.951143,13.1850528 L3.72663616,9.941663 L4.67815657,17.6221523 C4.67815657,17.6221523 5.49142188,18.6381045 7.56795931,19.3422974 C12.6590002,18.6353697 16.8920461,15.2196919 18.7896651,10.5802225 L18.7896651,10.5802225 Z" id="路径" fill="#15C5B1"></path>
                    <path d="M11.0880427,0.24567772 L0.625384442,5.10802769 C-0.21363427,5.49772672 -0.206857059,6.70374266 0.63622798,7.08523749 L10.9023471,11.7165028 C11.5892032,12.0268952 12.3747103,12.0268952 13.0615665,11.7165028 L19.3657281,8.87238356 C19.6896788,7.66910235 19.8645308,6.40565708 19.8645308,5.0998235 C19.8645308,4.50775445 19.825223,3.92388959 19.7560954,3.34959629 L13.3326549,0.260718735 C12.6237587,-0.0811225167 11.8010052,-0.0865919767 11.0880427,0.24567772 Z" id="路径" fill="#15C5B1"></path>
                    <path d="M15.8876634,1.48861251 L13.3326549,0.25935137 C12.6236615,-0.0811102206 11.8014569,-0.0866197656 11.0880427,0.244310355 L0.625384442,5.10802769 C-0.21363427,5.49772672 -0.206857059,6.70374266 0.63622798,7.08523749 L10.3181515,11.4526013 C13.3773845,9.11030507 15.4701872,5.55105395 15.8876634,1.48861251 Z M3.72663616,9.941663 L4.24712596,14.1408409 C5.97124842,13.8277144 7.58964638,13.2041959 9.03861408,12.3263476 L3.72663616,9.941663 L3.72663616,9.941663 Z" id="形状" fill="#17CAB6"></path>
                    <path d="M11.0880427,0.24567772 L0.625384442,5.10802769 C-0.21363427,5.49772672 -0.206857059,6.70374266 0.63622798,7.08523749 L3.31729262,8.29535553 C7.01629434,6.83227497 9.96031476,3.85825607 11.4038607,0.1253496 C11.2967808,0.15816636 11.1910563,0.197819945 11.0880427,0.24567772 Z" id="路径" fill="#22D3C0"></path>
                    <path d="M23.4591635,14.1408409 L23.3805478,14.1408409 L23.3805478,8.59617583 L22.0562808,9.16910177 L22.0562808,14.1408409 L21.9776652,14.1408409 C21.8583863,14.1408409 21.7607944,14.2379239 21.7607944,14.3596193 L21.7607944,16.7593449 C21.7607944,16.8796731 21.8570308,16.9781233 21.9776652,16.9781233 L23.4591635,16.9781233 C23.5784424,16.9781233 23.6760342,16.8810404 23.6760342,16.7593449 L23.6760342,14.3596193 C23.6746788,14.2392912 23.5784424,14.1408409 23.4591635,14.1408409 Z" id="路径" fill="#0DBFAA"></path>
                </g>
            </g>
        </g>
    </g>
</svg>