<?xml version="1.0" encoding="UTF-8"?>
<svg width="40px" height="40px" viewBox="0 0 40 40" version="1.1" xmlns="http://www.w3.org/2000/svg" xmlns:xlink="http://www.w3.org/1999/xlink">
    <title>icon-jgjg</title>
    <g id="页面-1" stroke="none" stroke-width="1" fill="none" fill-rule="evenodd">
        <g id="0-1公众端首页" transform="translate(-43, -432)">
            <g id="icon-jgjg" transform="translate(43, 432)">
                <rect id="矩形备份-8" fill="#EFF4F9" x="0" y="0" width="40" height="40" rx="5"></rect>
                <g id="订单查询" transform="translate(11, 10)" fill-rule="nonzero">
                    <path d="M13.5799662,0 L2.99339342,0 C1.33989991,0 0,1.35302585 0,3.02271732 L0,16.9772827 C0,18.6469742 1.33989991,20 2.99339342,20 L10.4601437,20 C8.95662975,18.899806 7.97618495,17.1137117 7.97618495,15.0998185 C7.97618495,11.7629389 10.6646613,9.04937731 13.9679298,9.04937731 C14.9012736,9.04937731 15.7850373,9.26591151 16.5733604,9.65266913 L16.5733604,3.02396896 C16.5745991,1.35427749 15.2334597,0 13.5799662,0 L13.5799662,0 Z M6.27682993,13.4964641 L4.41633985,13.4964641 C3.81890067,13.4964641 3.33425602,13.0070718 3.33425602,12.40378 C3.33425602,11.8004881 3.81890067,11.3110958 4.41633985,11.3110958 L6.27806943,11.3110958 C6.87550861,11.3110958 7.36015326,11.8004881 7.36015326,12.40378 C7.36015326,13.0070718 6.87550861,13.4964641 6.27682993,13.4964641 Z M9.07810078,9.61136492 L4.41633985,9.61136492 C3.81890067,9.61136492 3.33425602,9.12197259 3.33425602,8.51868077 C3.33425602,7.91538895 3.81890067,7.42599662 4.41633985,7.42599662 L9.07810078,7.42599662 C9.67553997,7.42599662 10.1601846,7.91538895 10.1601846,8.51868077 C10.1601846,9.12197259 9.67553997,9.61136492 9.07810078,9.61136492 Z M12.1458642,5.89774078 L4.41633985,5.89774078 C3.81890067,5.89774078 3.33425602,5.40834846 3.33425602,4.80505664 C3.33425602,4.20176482 3.81890067,3.71237249 4.41633985,3.71237249 L12.1458642,3.71237249 C12.7433034,3.71237249 13.2279481,4.20176482 13.2279481,4.80505664 C13.2279481,5.40834846 12.7433034,5.89774078 12.1458642,5.89774078 L12.1458642,5.89774078 Z" id="形状" fill="#6C6CEA"></path>
                    <path d="M18.6693547,18.0887415 L17.5600019,17.0073221 C17.8672182,16.4198308 18.0276334,15.7654391 18.0272935,15.1010702 C18.0272935,12.8406033 16.2064675,11.00194 13.9679298,11.00194 C11.7293921,11.00194 9.90856604,12.8406033 9.90856604,15.1010702 C9.90856604,17.361537 11.7293921,19.2002003 13.9679298,19.2002003 C14.7401385,19.2002003 15.4627672,18.9811628 16.0775594,18.601915 L17.1658408,19.6620564 C17.3670403,19.8592719 17.6365785,19.9693111 17.916978,19.9687114 C18.2008236,19.9687114 18.4834297,19.8573127 18.6953842,19.6345203 C19.1118564,19.2002003 19.0994614,18.5080418 18.6693547,18.0887415 L18.6693547,18.0887415 Z M13.9679298,17.0135803 C12.923031,17.0135803 12.0739732,16.1549534 12.0739732,15.1010702 C12.0739732,14.0459353 12.9242705,13.18856 13.9679298,13.18856 C15.0128286,13.18856 15.8618864,14.0471869 15.8618864,15.1010702 C15.8618864,16.156205 15.0128286,17.0135803 13.9679298,17.0135803 Z" id="形状" fill="#6C6CEA"></path>
                    <path d="M16.5745991,3.02396896 C16.5745991,1.35427749 15.2346992,0.00125164278 13.5812057,0.00125164278 L2.99339342,0.00125164278 C1.33989991,0.00125164278 0,1.35427749 0,3.02396896 L0,16.9785343 C0,18.0224044 0.524308661,18.9436135 1.32254691,19.4868265 C2.06252863,19.596971 2.81986336,19.6545466 3.5895931,19.6545466 C5.5343692,19.6545466 7.39361977,19.2915702 9.10784879,18.6307028 C8.39761508,17.6368984 7.97618495,16.41905 7.97618495,15.1023218 C7.97618495,11.7654421 10.6646613,9.05188059 13.9679298,9.05188059 C14.9012736,9.05188059 15.7850373,9.26841479 16.5733596,9.65517241 L16.5733596,3.02396896 L16.5745991,3.02396896 Z M6.27682993,13.4964641 L4.41633985,13.4964641 C3.81890067,13.4964641 3.33425602,13.0070718 3.33425602,12.40378 C3.33425602,11.8004881 3.81890067,11.3110958 4.41633985,11.3110958 L6.27806943,11.3110958 C6.87550861,11.3110958 7.36015326,11.8004881 7.36015326,12.40378 C7.36015326,13.0070718 6.87550861,13.4964641 6.27682993,13.4964641 Z M9.07810078,9.61136492 L4.41633985,9.61136492 C3.81890067,9.61136492 3.33425602,9.12197259 3.33425602,8.51868077 C3.33425602,7.91538895 3.81890067,7.42599662 4.41633985,7.42599662 L9.07810078,7.42599662 C9.67553997,7.42599662 10.1601846,7.91538895 10.1601846,8.51868077 C10.1601846,9.12197259 9.67553997,9.61136492 9.07810078,9.61136492 Z M12.1458642,5.89774078 L4.41633985,5.89774078 C3.81890067,5.89774078 3.33425602,5.40834846 3.33425602,4.80505664 C3.33425602,4.20176482 3.81890067,3.71237249 4.41633985,3.71237249 L12.1458642,3.71237249 C12.7433034,3.71237249 13.2279481,4.20176482 13.2279481,4.80505664 C13.2279481,5.40834846 12.7433034,5.89774078 12.1458642,5.89774078 L12.1458642,5.89774078 Z" id="形状" fill="#757BF2"></path>
                    <path d="M13.9679298,11.00194 C11.7293921,11.00194 9.90856604,12.8406033 9.90856604,15.1010702 C9.90856604,16.1324238 10.2878532,17.0749108 10.9125613,17.7958571 C11.5670175,17.4403905 12.1929652,17.0386132 12.7866859,16.59428 C12.3528608,16.24382 12.0739732,15.7056136 12.0739732,15.1010702 C12.0739732,14.0459353 12.9242705,13.18856 13.9679298,13.18856 C14.602554,13.18856 15.1640477,13.5064773 15.5086288,13.9921147 C15.9808784,13.4176106 16.4122245,12.8080606 16.7989487,12.1672195 C16.0676434,11.4475249 15.0686061,11.00194 13.9679298,11.00194 Z" id="路径" fill="#757BF2"></path>
                    <path d="M13.5799662,0 L2.99339342,0 C1.33989991,0 0,1.35302585 0,3.02271732 L0,14.0909944 C1.37832442,14.0346705 2.70954783,13.7968584 3.97135922,13.398836 C3.58369883,13.2225142 3.33437883,12.8331152 3.33425602,12.40378 C3.33425602,11.8004881 3.81890067,11.3110958 4.41633985,11.3110958 L6.27806943,11.3110958 C6.70445756,11.3110958 7.07258917,11.5601727 7.24859822,11.9231491 C11.3166385,9.48244571 14.1823634,5.2105889 14.731462,0.2340572 C14.3769649,0.0826084236 13.9877618,0 13.5799662,0 L13.5799662,0 Z M9.07810078,9.61136492 L4.41633985,9.61136492 C3.81890067,9.61136492 3.33425602,9.12197259 3.33425602,8.51868077 C3.33425602,7.91538895 3.81890067,7.42599662 4.41633985,7.42599662 L9.07810078,7.42599662 C9.67553997,7.42599662 10.1601846,7.91538895 10.1601846,8.51868077 C10.1601846,9.12197259 9.67553997,9.61136492 9.07810078,9.61136492 Z M12.1458642,5.89774078 L4.41633985,5.89774078 C3.81890067,5.89774078 3.33425602,5.40834846 3.33425602,4.80505664 C3.33425602,4.20176482 3.81890067,3.71237249 4.41633985,3.71237249 L12.1458642,3.71237249 C12.7433034,3.71237249 13.2279481,4.20176482 13.2279481,4.80505664 C13.2279481,5.40834846 12.7433034,5.89774078 12.1458642,5.89774078 L12.1458642,5.89774078 Z" id="形状" fill="#8486F8"></path>
                    <path d="M4.17091878,5.868953 C3.69123213,5.75630515 3.33301652,5.32323675 3.33301652,4.80505664 C3.33301652,4.20176482 3.81766117,3.71237249 4.41510035,3.71237249 L6.68214655,3.71237249 C7.72037973,2.60859059 8.59389113,1.35800974 9.27518134,0 L2.99339342,0 C1.33989991,0 0,1.35302585 0,3.02271732 L0,7.89411102 C1.49979546,7.43100319 2.90290989,6.74259966 4.17091878,5.868953 Z" id="路径" fill="#8D92F8"></path>
                </g>
            </g>
        </g>
    </g>
</svg>