<?xml version="1.0" encoding="UTF-8"?>
<svg width="40px" height="40px" viewBox="0 0 40 40" version="1.1" xmlns="http://www.w3.org/2000/svg" xmlns:xlink="http://www.w3.org/1999/xlink">
    <title>icon-yjrt</title>
    <g id="页面-1" stroke="none" stroke-width="1" fill="none" fill-rule="evenodd">
        <g id="0-1公众端首页" transform="translate(-292, -274)">
            <g id="icon-yjrt" transform="translate(292, 274)">
                <rect id="矩形备份-3" fill="#EFF4F9" x="0" y="0" width="40" height="40" rx="5"></rect>
                <g id="地图" transform="translate(10, 10)" fill-rule="nonzero">
                    <path d="M3.28664287,6.45663284 C3.58252757,6.1825572 3.80275225,5.99218939 4.00811515,5.7869702 C5.85503013,3.94539792 7.70194511,2.10247552 9.54075367,0.251452354 C9.7204462,0.0705354298 9.89743659,-0.0118222747 10.1514381,0.00167898831 C10.5000146,0.0219308829 10.8499421,0.00707949352 11.2687743,0.00707949352 C11.1796036,0.123190356 11.1269118,0.201497681 11.0647625,0.271704249 C9.05436786,2.54666707 8.88278176,5.53314645 10.6310685,8.00792796 C10.810761,8.26310184 11.0255814,8.49802381 11.2471572,8.71944453 C12.4887921,9.9656111 13.7358312,11.205027 14.9828704,12.444443 C15.4516923,12.9102366 15.6908319,12.9088864 16.1556006,12.4457931 C17.3283308,11.279284 18.49971,10.1114247 19.6710891,8.94626574 C19.7575577,8.85985766 19.8507816,8.78155034 19.9993995,8.64383745 L19.9993995,9.05562598 C19.9993995,11.8733396 20.0007506,14.689703 19.9993995,17.5074166 C19.9993995,19.093815 19.0982347,19.9740974 17.5039701,19.9997498 C17.0837868,20.0065004 16.8000618,19.8768883 16.5055282,19.5825608 C12.2307374,15.2932095 7.94513801,11.0146592 3.65953865,6.73610899 C3.56901685,6.64700065 3.45552683,6.58219459 3.28664287,6.45663284 Z M2.12877444,7.66634601 C6.25359627,11.7734302 10.3446413,15.8467613 14.4775696,19.9632964 C14.3451646,19.9740974 14.2519406,19.9889488 14.1573656,19.9889488 C10.2203427,19.9902989 6.28331985,19.9929992 2.34629698,19.9875986 C0.941182437,19.9848984 0.00759190775,19.0438604 0.00353869272,17.6356786 C-0.00321666567,15.1095923 0.00083654936,12.583506 0.00624083607,10.0587698 C0.00624083607,9.9399587 0.0251558396,9.78334405 0.0981137102,9.70773698 C0.770947406,9.01647231 1.45864289,8.33735878 2.12877444,7.66634601 L2.12877444,7.66634601 Z" id="形状" fill="#4E82F9"></path>
                    <path d="M19.9967074,4.67986663 C19.9804845,5.95573598 19.5494927,7.0655398 18.6685939,7.99712695 C17.7809398,8.93546473 16.897339,9.87920302 16.0083338,10.8175408 C15.6435444,11.2023268 15.485469,11.1969263 15.1247329,10.8148405 C14.260047,9.90215517 13.3967122,8.98676953 12.5279731,8.07813453 C10.5959406,6.05699546 10.6648453,3.03271254 12.6914528,1.11148281 C14.2154617,-0.333152335 16.8581579,-0.343953345 18.4051349,1.08718054 C19.4535666,2.05927147 19.9993995,3.28923654 19.9967074,4.67986663 Z M15.5773419,2.22398688 C14.3357071,2.214536 13.3561801,3.17042542 13.3372651,4.40849124 C13.3197011,5.66140845 14.2924728,6.65780166 15.5435651,6.66455229 C16.7838489,6.67265305 17.7633759,5.71406338 17.7795888,4.47599756 C17.7985038,3.21497959 16.8365407,2.23343777 15.5773419,2.22398688 Z" id="形状" fill="#4F86FD"></path>
                    <path d="M7.27770861,0.00707949352 L0.0156983378,7.26400837 C0.0116451228,7.18570105 0.00353869272,7.07499069 0.00353869272,6.96428033 C0.00218762104,5.45213887 0.00083654936,3.94134754 0.00353869272,2.42920608 C0.00624083607,0.933266137 0.924969577,0.0124799987 2.41655271,0.00977974613 C3.94056156,0.00707949352 5.46592149,0.00842961982 6.98993034,0.00842961982 C7.09126071,0.00707949352 7.19124002,0.00707949352 7.27770861,0.00707949352 Z" id="路径" fill="#6F99FC"></path>
                    <path d="M12.4955474,17.9894117 L2.12877444,7.66634601 C1.45864289,8.33735878 0.770947406,9.01647231 0.0994647818,9.70773698 C0.0251558396,9.78334405 0.00759190775,9.9399587 0.00759190775,10.0587698 C0.0022335026,12.5848561 -0.000514522318,15.1109424 0.00624083607,17.6356786 C0.0102940511,19.0438604 0.94388458,19.9848984 2.34899913,19.9875986 C4.03648765,19.9902989 5.72532725,19.9902989 7.41281577,19.9902989 C9.23135825,19.5974121 10.9431661,18.9142482 12.4955474,17.9894117 L12.4955474,17.9894117 Z M19.6710891,8.94626574 C18.4983589,10.1127749 17.3269797,11.279284 16.1556006,12.4457931 C15.6908319,12.9075363 15.4516923,12.9102366 14.9828704,12.444443 C13.7358312,11.205027 12.4887921,9.9656111 11.2471572,8.71944453 C11.0255814,8.49802381 10.8121121,8.26310184 10.6310685,8.00792796 C8.88278176,5.53314645 9.05436786,2.54666707 11.0647625,0.271704249 C11.1269118,0.201497681 11.1782525,0.124540482 11.2674233,0.00707949352 C10.8485911,0.00707949352 10.4986635,0.0219308829 10.150087,0.00167898831 C9.89608552,-0.013172401 9.71909513,0.0705354298 9.53940259,0.251452354 C7.70059404,2.10247552 5.85367906,3.94404779 4.00676407,5.7869702 C3.80140118,5.99218939 3.5811765,6.1825572 3.2852918,6.45663284 C3.45282469,6.58084446 3.56766578,6.64700065 3.65818758,6.73610899 C7.08990964,10.1627295 10.5202806,13.5893501 13.9465984,17.0213712 C16.7311571,14.9489273 18.857744,12.0461557 19.9615695,8.67894074 C19.8345688,8.79370147 19.7494513,8.86795842 19.6710891,8.94626574 Z" id="形状" fill="#4F86FD"></path>
                    <path d="M2.12877444,7.66634601 C1.45864289,8.33735878 0.770947406,9.01647231 0.0994647818,9.70773698 C0.0251558396,9.78334405 0.00759190775,9.9399587 0.00759190775,10.0587698 C0.00488976439,11.4791027 0.00353869272,12.9007857 0.00218762104,14.3211186 C2.49491487,14.1996072 4.84577959,13.5407456 6.94264283,12.4579443 C5.33892075,10.8634451 3.73654974,9.2675958 2.12877444,7.66634601 Z M11.5295312,9.00162092 C11.4349562,8.90711208 11.3403811,8.81395337 11.2471572,8.71944453 C11.0255814,8.49802381 10.8121121,8.26310184 10.6310685,8.00792796 C8.88278176,5.53314645 9.05436786,2.54666707 11.0647625,0.271704249 C11.1269118,0.201497681 11.1782525,0.124540482 11.2674233,0.00707949352 C10.8485911,0.00707949352 10.4986635,0.0219308829 10.150087,0.00167898831 C9.89608552,-0.013172401 9.71909513,0.0705354298 9.53940259,0.251452354 C7.70059404,2.10247552 5.85367906,3.94404779 4.00676407,5.7869702 C3.80140118,5.99218939 3.5811765,6.1825572 3.2852918,6.45663284 C3.45282469,6.58084446 3.56766578,6.64700065 3.65818758,6.73610899 C5.26731395,8.34275929 6.87644032,9.94940959 8.48421561,11.5560599 C9.59749868,10.8242914 10.6189089,9.96696123 11.5295312,9.00162092 L11.5295312,9.00162092 Z" id="形状" fill="#6591FD"></path>
                    <path d="M12.4266428,7.9687743 C12.9535607,7.31126279 13.4318401,6.61459762 13.8587787,5.88417929 C13.5264151,5.48994241 13.3305097,4.97689441 13.3386162,4.40984137 C13.3561801,3.21767984 14.2654513,2.28879295 15.4422348,2.23073751 C15.6557041,1.51922095 15.823237,0.787452497 15.9421313,0.0394825248 C14.76805,-0.0590766953 13.5520855,0.298706775 12.6914528,1.11418306 C10.7013242,2.99895938 10.5999939,5.94898535 12.4266428,7.9687743 L12.4266428,7.9687743 Z" id="路径" fill="#6591FD"></path>
                    <path d="M4.3296702,5.46564014 C6.18465373,4.22357019 7.77790338,2.63005928 9.01924,0.77530136 C7.45943103,2.34211965 5.89623745,3.90556956 4.3296702,5.46564014 L4.3296702,5.46564014 Z" id="路径" fill="#6F99FC"></path>
                </g>
            </g>
        </g>
    </g>
</svg>