<?xml version="1.0" encoding="UTF-8"?>
<svg width="40px" height="40px" viewBox="0 0 40 40" version="1.1" xmlns="http://www.w3.org/2000/svg" xmlns:xlink="http://www.w3.org/1999/xlink">
    <title>icon-wybt</title>
    <g id="页面-1" stroke="none" stroke-width="1" fill="none" fill-rule="evenodd">
        <g id="0-1公众端首页" transform="translate(-43, -274)">
            <g id="icon-wybt" transform="translate(43, 274)">
                <rect id="矩形" fill="#EFF4F9" x="0" y="0" width="40" height="40" rx="5"></rect>
                <g id="标书" transform="translate(10, 9)" fill-rule="nonzero">
                    <path d="M16.6434782,14.8933505 C17.2802573,15.5232121 17.7886104,16.028706 18.481576,16.7147336 C18.2728836,16.9073027 15.521088,19.6875196 14.3117428,20.911136 C13.6040617,21.6265839 12.6542441,21.762987 11.7445596,21.9863137 C11.4569388,22.0571899 11.344566,21.8418869 11.4047657,21.5918144 C11.6388757,20.6142586 11.8515813,19.6527502 12.6475552,18.8998584 C14.0147575,17.601354 15.3137335,16.2319735 16.6434782,14.8933505 Z" id="路径" fill="#4E82F9"></path>
                    <path d="M12.8348432,0 C13.1679483,0.13907771 13.4676091,0.18855728 13.6629237,0.35839256 C14.6461856,1.21158082 15.6254342,2.0714555 16.5511719,2.98482162 C16.7959841,3.22687032 16.8481572,3.66416274 17.0300941,4.11482801 C15.8060333,4.11482801 14.7532073,4.13087544 13.7003813,4.10011787 C13.5237955,4.09476872 13.2843344,3.92760801 13.1933659,3.76847102 C13.0274823,3.47426817 12.8682875,3.13459761 12.8508965,2.80696262 C12.8040745,1.91900494 12.8348432,1.02569811 12.8348432,0 L12.8348432,0 Z" id="路径" fill="#4F86FD"></path>
                    <path d="M19.3190208,15.9484689 C18.6969571,15.2958735 18.1310799,14.6994441 17.5384472,14.0776063 C17.761855,13.8542795 18.1993062,13.3394246 18.7223748,13.4637921 C19.3925982,13.6202546 19.7551343,14.0909791 19.9558,14.7007814 C20.1497768,15.2891871 19.662828,15.6315322 19.3190208,15.9484689 Z M16.8923036,6.05790409 C16.8923036,5.89742981 16.8749126,5.73829281 16.8642104,5.53903725 C15.8394776,5.53903725 14.8495268,5.52700168 13.8609138,5.54171182 C12.8241411,5.55775925 12.1097712,5.05761441 11.7338574,4.13756187 C11.5398806,3.66148817 11.4609521,3.11855018 11.4301833,2.59968334 C11.3820236,1.77992723 11.4168056,0.954821969 11.4168056,0.0802371402 C8.57002827,0.0802371402 5.29650186,0.0695388549 2.53266632,0.093609997 C2.20491235,0.0962845683 1.84103855,0.230013135 1.5587688,0.40787213 C0.550089229,1.04040825 0.0189940161,1.95109979 0.0216695587,3.17204161 C0.0323717293,7.91940574 0.0711670975,12.6681072 0.000265217672,17.414134 C-0.0224768947,18.8851482 1.42097836,20.471169 2.93667326,20.5875129 L2.94603766,20.5875129 C3.03566834,20.5941993 7.88508936,20.6329806 7.88508936,20.6329806 C9.56800568,20.6329806 10.1873938,19.8306092 10.3251842,19.6875196 C10.3679929,19.6433892 10.6743426,19.3130797 11.0770117,18.8771245 L13.4100849,16.4071579 C13.321792,16.4232053 13.181326,16.4365782 12.9512293,16.4365782 C12.9097584,16.44059 12.8696253,16.4419273 12.8294921,16.4419273 C10.0817099,16.4446019 6.82557448,16.4486138 4.07645442,16.44059 C3.5132527,16.4392528 3.09720582,16.1584228 2.85908252,15.6475796 C2.42296907,14.7114797 3.09720582,13.6951426 4.17277395,13.6911307 C6.73861934,13.6817697 9.81281783,13.692468 12.3786632,13.6844443 C12.9044073,13.683107 13.4087471,13.7031663 13.7993764,14.1190621 C14.1766279,14.5202478 14.2395031,15.0043452 14.18733,15.2691278 C14.18733,15.2691278 14.1859923,15.4523359 14.1137526,15.6596152 L16.556523,13.0733047 C16.7411355,12.8927712 16.8735748,12.5678107 16.8775882,12.3083773 C16.9043436,10.2262235 16.8936414,8.14273245 16.8923036,6.05790409 L16.8923036,6.05790409 Z M12.6114354,10.9965001 C11.3057706,11.0018492 10.0001058,10.9978374 8.69444101,10.9978374 C7.3887762,10.9978374 5.57342052,11.0018492 4.26775572,10.9965001 C3.31927585,10.9924882 2.74135865,10.4642604 2.7426941,9.61775854 C2.74403419,8.78462957 3.33666688,8.23500516 4.27176903,8.23233059 C6.88309864,8.22564416 10.0041191,8.22564416 12.6154487,8.23233059 C13.5518887,8.23500516 14.2007077,8.83410914 14.1833167,9.64717883 C14.1672635,10.4602485 13.5518887,10.9938255 12.6114354,10.9965001 L12.6114354,10.9965001 Z" id="形状" fill="#4E82F9"></path>
                    <path d="M16.8923036,6.05790409 C16.8923036,5.89742981 16.8749126,5.73829281 16.8642104,5.53903725 C15.8394776,5.53903725 14.8495268,5.52700168 13.8609138,5.54171182 C12.8241411,5.55775925 12.1097712,5.05761441 11.7338574,4.13756187 C11.5398806,3.66148817 11.4609521,3.11855018 11.4301833,2.59968334 C11.3820236,1.77992723 11.4168056,0.954821969 11.4168056,0.0802371402 C8.57002827,0.0802371402 5.29650186,0.0695388549 2.53266632,0.093609997 C2.20491235,0.0962845683 1.84103855,0.230013135 1.5587688,0.40787213 C0.550089229,1.04040825 0.0189940161,1.95109979 0.0216695587,3.17204161 C0.0323717293,7.91940574 0.0711670975,12.6681072 0.000265217672,17.414134 C-0.0104369529,18.1041734 0.303939307,18.818284 0.79490138,19.3946541 C1.30057894,19.4468082 1.81428312,19.4735539 2.33333839,19.4735539 C5.72191314,19.4735539 9.35396226,18.3448848 11.8596079,16.4432646 C9.43556631,16.4459392 6.50183382,16.4472765 4.07645442,16.44059 C3.5132527,16.4392528 3.09720582,16.1584228 2.85908252,15.6475796 C2.42296907,14.7114797 3.09720582,13.6951426 4.17277395,13.6911307 C6.73861934,13.6817697 9.81281783,13.692468 12.3786632,13.6844443 C12.9044073,13.683107 13.4087471,13.7031663 13.7993764,14.1190621 C13.8943581,14.2193585 13.9679355,14.3250041 14.0267975,14.431987 C15.2669115,13.0305116 16.2474979,11.3963485 16.8936414,9.60037383 C16.8963169,8.42088787 16.8923036,7.23872734 16.8923036,6.05790409 Z M12.6114354,10.9965001 C11.3057706,11.0018492 10.0001058,10.9978374 8.69444101,10.9978374 C7.3887762,10.9978374 5.57342052,11.0018492 4.26775572,10.9965001 C3.31927585,10.9924882 2.74135865,10.4642604 2.7426941,9.61775854 C2.74403419,8.78462957 3.33666688,8.23500516 4.27176903,8.23233059 C6.88309864,8.22564416 10.0041191,8.22564416 12.6154487,8.23233059 C13.5518887,8.23500516 14.2007077,8.83410914 14.1833167,9.64717883 C14.1672635,10.4602485 13.5518887,10.9938255 12.6114354,10.9965001 L12.6114354,10.9965001 Z" id="形状" fill="#4F86FD"></path>
                    <path d="M7.96401787,10.9991746 C6.90182744,11.0005119 5.32994614,11.0018492 4.26775572,10.9978374 C3.31927585,10.9938255 2.74135865,10.4655977 2.74269642,9.61909583 C2.74403419,8.78596686 3.33666688,8.23634245 4.27176903,8.23366787 C6.23829287,8.22831873 8.7131698,8.22831873 10.6796936,8.2309933 C11.3954013,7.28285776 12.0014117,6.24512408 12.4776583,5.13918883 C12.1565932,4.90248927 11.9064299,4.56549328 11.7311819,4.13622458 C11.5372051,3.66015088 11.4582765,3.1172129 11.4275078,2.59834606 C11.379348,1.77858994 11.4141301,0.953484683 11.4141301,0.0788998546 C8.56735273,0.0788998546 5.29382632,0.0682015692 2.52999078,0.0922727113 C2.20223681,0.0949472826 1.83836301,0.22867585 1.55609326,0.406534844 C0.547413686,1.03907097 0.0163184735,1.94976251 0.0189839568,3.17070433 C0.027020644,6.80277221 0.0511005277,10.4335028 0.031033958,14.0655707 C2.8135983,13.7352611 5.86906798,12.6413614 7.96401787,10.9991746 Z M12.8348432,0 C12.8348432,1.02569811 12.8040745,1.91766765 12.8508965,2.80696262 C12.8629364,3.04767404 12.9525671,3.29507189 13.0649399,3.52642231 C13.368614,2.50874792 13.5679419,1.44426852 13.6482082,0.347694274 C13.4515558,0.18855728 13.1599217,0.136403138 12.8348432,0 L12.8348432,0 Z" id="形状" fill="#6591FD"></path>
                    <path d="M8.62755244,0.0788998546 C6.74932151,0.0775625689 4.38681737,0.0775625689 2.53400409,0.0949472826 C2.20625012,0.097621854 1.84237632,0.231350421 1.56010657,0.409209415 C0.551427,1.04174554 0.0203317874,1.95243708 0.0229972707,3.1733789 C0.027020644,4.72596756 0.0323717293,6.27721894 0.0377228145,7.8298076 C3.63097657,6.39088822 7.04496897,3.59729845 8.62755244,0.0788998546 Z" id="路径" fill="#6F99FC"></path>
                </g>
            </g>
        </g>
    </g>
</svg>