<?xml version="1.0" encoding="UTF-8"?>
<svg width="40px" height="40px" viewBox="0 0 40 40" version="1.1" xmlns="http://www.w3.org/2000/svg" xmlns:xlink="http://www.w3.org/1999/xlink">
    <title>icon-rcpx</title>
    <g id="页面-1" stroke="none" stroke-width="1" fill="none" fill-rule="evenodd">
        <g id="0-1公众端首页" transform="translate(-126, -432)">
            <g id="icon-rcpx" transform="translate(126, 432)">
                <rect id="矩形备份-9" fill="#EFF4F9" x="0" y="0" width="40" height="40" rx="5"></rect>
                <g id="教育-(1)" transform="translate(10, 10)" fill-rule="nonzero">
                    <path d="M18.216049,1.75957237 L11.3764729,1.75957237 L11.3764729,1.0691242 C11.3764729,0.47903187 10.9064578,0.00133807785 10.3258508,0.00133807785 C9.74524389,0.00133807785 9.27522875,0.47903187 9.27522875,1.0691242 L9.27522875,1.75957237 L1.78131789,1.75957237 C0.797840827,1.75957237 0,2.57044755 0,3.5699917 L0,13.9655185 C0,14.9650627 0.797840827,15.7759378 1.78131789,15.7759378 L6.38535975,15.7759378 L4.42367191,19.4195238 C4.14455928,19.9360219 4.33151208,20.5849896 4.84102429,20.8686621 C5.00164571,20.9569753 5.17411625,21 5.34395366,21 C5.71522612,21 6.07596603,20.7990821 6.26686854,20.4444915 L8.78151537,15.7759378 L12.1571983,15.7759378 L14.6718452,20.4444915 C14.8054192,20.6930748 15.0307722,20.877471 15.2982345,20.9570376 C15.5656968,21.0366043 15.8533127,21.0048099 16.0976894,20.8686621 C16.6060181,20.5850892 16.7926923,19.9369157 16.5150418,19.4195238 L14.553354,15.7759378 L18.2186821,15.7759378 C19.2021592,15.7759378 20,14.9650627 20,13.9655185 L20,3.5699917 C19.9973669,2.56910947 19.199526,1.75957237 18.216049,1.75957237 Z M11.119742,12.2567931 L4.88447107,12.2567931 C4.30386413,12.2567931 3.83384899,11.7790993 3.83384899,11.189007 C3.83384899,10.5989146 4.30386413,10.1212209 4.88447107,10.1212209 L11.119742,10.1212209 C11.7003489,10.1212209 12.170364,10.5989146 12.170364,11.189007 C12.1690475,11.7790993 11.6990323,12.2567931 11.119742,12.2567931 Z M14.9983543,7.6538053 L4.88447107,7.6538053 C4.30386413,7.6538053 3.83384899,7.17611151 3.83384899,6.58601917 C3.83384899,5.99592684 4.30386413,5.51823305 4.88447107,5.51823305 L14.9983543,5.51823305 C15.5789612,5.51823305 16.0489764,5.99592684 16.0489764,6.58601917 C16.0489764,7.17611151 15.5776447,7.6538053 14.9983543,7.6538053 Z" id="形状" fill="#6C6CEA"></path>
                    <path d="M18.216049,1.75957237 L11.3764729,1.75957237 L11.3764729,1.0691242 C11.3764729,0.47903187 10.9064578,0.00133807785 10.3258508,0.00133807785 C9.74524389,0.00133807785 9.27522875,0.47903187 9.27522875,1.0691242 L9.27522875,1.75957237 L1.78131789,1.75957237 C0.797840827,1.75957237 0,2.57044755 0,3.5699917 L0,13.9655185 C0,14.9650627 0.797840827,15.7759378 1.78131789,15.7759378 L6.38535975,15.7759378 L4.79362781,18.7304137 C4.82259232,18.7304137 4.85155684,18.7317518 4.88052136,18.7317518 C5.70206043,18.7317518 6.50780067,18.6635098 7.29379238,18.5350544 L8.7801988,15.7759378 L12.1558818,15.7759378 L12.5863998,16.5761084 C16.9850569,13.9066431 19.9302218,9.02132086 19.9302218,3.43484584 C19.9302218,3.31174268 19.9289053,3.18997759 19.9262721,3.06821251 C19.712988,2.31219852 19.0283721,1.75957237 18.216049,1.75957237 Z M11.119742,12.2567931 L4.88447107,12.2567931 C4.30386413,12.2567931 3.83384899,11.7790993 3.83384899,11.189007 C3.83384899,10.5989146 4.30386413,10.1212209 4.88447107,10.1212209 L11.119742,10.1212209 C11.7003489,10.1212209 12.170364,10.5989146 12.170364,11.189007 C12.170364,11.7790993 11.6990323,12.2567931 11.119742,12.2567931 Z M14.9983543,7.6538053 L4.88447107,7.6538053 C4.30386413,7.6538053 3.83384899,7.17611151 3.83384899,6.58601917 C3.83384899,5.99592684 4.30386413,5.51823305 4.88447107,5.51823305 L14.9983543,5.51823305 C15.5789612,5.51823305 16.0489764,5.99592684 16.0489764,6.58601917 C16.0489764,7.17611151 15.5776447,7.6538053 14.9983543,7.6538053 Z" id="形状" fill="#757BF2"></path>
                    <path d="M11.3764729,1.06778612 C11.3764729,0.477693792 10.9064578,0 10.3258508,0 C9.74524389,0 9.27522875,0.477693792 9.27522875,1.06778612 L9.27522875,1.75823429 L1.78131789,1.75823429 C0.797840827,1.75823429 0,2.56910947 0,3.56865362 L0,13.2790846 C0.252781252,13.2924654 0.506879073,13.2991557 0.763610032,13.2991557 C2.69238365,13.2991557 4.53689685,12.9298463 6.23263775,12.2567931 L4.88447107,12.2567931 C4.30386413,12.2567931 3.83384899,11.7790993 3.83384899,11.189007 C3.83384899,10.5989146 4.30386413,10.1212209 4.88447107,10.1212209 L9.94536239,10.1212209 C10.8669607,9.39865881 11.7042986,8.57038863 12.4389441,7.6538053 L4.88447107,7.6538053 C4.30386413,7.6538053 3.83384899,7.17611151 3.83384899,6.58601917 C3.83384899,5.99592684 4.30386413,5.51823305 4.88447107,5.51823305 L13.8726878,5.51823305 C14.5217563,4.35142917 15.0246857,3.08962175 15.3551445,1.75823429 L11.3764729,1.75823429 L11.3764729,1.06778612 Z" id="路径" fill="#8486F8"></path>
                    <path d="M3.92074254,6.16318657 C4.08708288,5.77262802 4.46573414,5.51974997 4.88447107,5.51957113 L5.02007768,5.51957113 C6.56798356,4.52341642 7.92463895,3.24933496 9.02376407,1.75957237 L1.78131789,1.75957237 C0.797840827,1.75957237 0,2.57044755 0,3.5699917 L0,7.57753486 C1.38634718,7.28984812 2.70159963,6.8081401 3.92074254,6.16318657 L3.92074254,6.16318657 Z M10.1349483,0.0187330899 C9.64650122,0.109722384 9.27522875,0.544597685 9.27522875,1.06778612 L9.27522875,1.4076579 C9.58593904,0.962077974 9.87295109,0.49776496 10.1349483,0.0187330899 L10.1349483,0.0187330899 Z" id="形状" fill="#8D92F8"></path>
                </g>
            </g>
        </g>
    </g>
</svg>