<?xml version="1.0" encoding="UTF-8"?>
<svg width="40px" height="40px" viewBox="0 0 40 40" version="1.1" xmlns="http://www.w3.org/2000/svg" xmlns:xlink="http://www.w3.org/1999/xlink">
    <title>icon-yyzx</title>
    <g id="页面-1" stroke="none" stroke-width="1" fill="none" fill-rule="evenodd">
        <g id="0-1公众端首页" transform="translate(-209, -353)">
            <g id="icon-yyzx" transform="translate(209, 353)">
                <rect id="矩形备份-6" fill="#EFF4F9" x="0" y="0" width="40" height="40" rx="5"></rect>
                <g id="快讯" transform="translate(11, 10)" fill-rule="nonzero">
                    <path d="M16.7369539,4.32300058 L15.4616253,4.32300058 L15.4616253,1.98491977 C15.4616253,0.889347168 14.5924844,0 13.5189882,0 L1.9426371,0 C0.870402337,0 0,0.888058259 0,1.98491977 L0,18.0125024 C0,19.108075 0.869140884,19.9974222 1.9426371,19.9974222 L12.8996149,19.9974222 L12.8996149,20 L16.7382154,20 C17.9857921,20 19,19.0139847 19,17.8024103 L19,6.52059032 C19,5.30901592 17.9845306,4.32300058 16.7369539,4.32300058 Z M2.98838136,4.81020816 C2.98838136,4.46478056 3.26211658,4.18508732 3.6001859,4.18508732 L8.11744788,4.18508732 C8.4555172,4.18508732 8.72925242,4.46478056 8.72925242,4.81020816 L8.72925242,6.70877103 C8.72925242,7.05419862 8.4555172,7.33389186 8.11744788,7.33389186 L3.6001859,7.33389186 C3.26211658,7.33389186 2.98838136,7.05419862 2.98838136,6.70877103 L2.98838136,4.81020816 Z M11.5725667,15.9244699 L3.70614792,15.9244699 C3.21359441,15.9244699 2.81430089,15.5164856 2.81430089,15.0132113 C2.81430089,14.5099371 3.21359441,14.1019527 3.70614792,14.1019527 L11.5725667,14.1019527 C12.0657947,14.1019527 12.4644138,14.5105368 12.4644138,15.0132113 C12.4644138,15.5158858 12.0657947,15.9244699 11.5725667,15.9244699 Z M11.5725667,11.6672037 L3.70614792,11.6672037 C3.21359441,11.6672037 2.81430089,11.2592193 2.81430089,10.7559451 C2.81430089,10.2526709 3.21359441,9.84468647 3.70614792,9.84468647 L11.5725667,9.84468647 C12.0657947,9.84468647 12.4644138,10.2532706 12.4644138,10.7559451 C12.4644138,11.2586196 12.0657947,11.6672037 11.5725667,11.6672037 Z M17.2150445,17.8036992 C17.2150445,18.0589031 17.0005975,18.2677064 16.7369539,18.2677064 L15.4427035,18.2677064 C15.4527951,18.1839273 15.4603638,18.1001482 15.4603638,18.0137913 L15.4603638,6.0565831 L16.7356925,6.0565831 C16.9993361,6.0565831 17.213783,6.26538635 17.213783,6.52059032 L17.213783,17.8036992 L17.2150445,17.8036992 Z" id="形状" fill="#EF4D78"></path>
                    <path d="M18.6139955,5.29612683 C18.2078077,4.70967326 17.5177931,4.32300058 16.7369539,4.32300058 L15.4603638,4.32300058 L15.4603638,1.98491977 C15.4603638,0.889347168 14.5912229,0 13.5177267,0 L1.9426371,0 C0.870402337,0 0,0.888058259 0,1.98491977 L0,18.0125024 C0,19.108075 0.869140884,19.9974222 1.9426371,19.9974222 L4.80613464,19.9974222 C9.14931616,19.4303022 12.9450272,17.0741767 15.4616253,13.6740349 L15.4616253,6.0565831 L16.7382154,6.0565831 C17.001859,6.0565831 17.2163059,6.26538635 17.2163059,6.52059032 L17.2163059,10.6876329 C17.9681317,9.02365148 18.4525295,7.20628988 18.6139955,5.29612683 Z M2.98838136,4.81020816 C2.98838136,4.46478056 3.26211658,4.18508732 3.6001859,4.18508732 L8.11744788,4.18508732 C8.4555172,4.18508732 8.72925242,4.46478056 8.72925242,4.81020816 L8.72925242,6.70877103 C8.72925242,7.05419862 8.4555172,7.33389186 8.11744788,7.33389186 L3.6001859,7.33389186 C3.26211658,7.33389186 2.98838136,7.05419862 2.98838136,6.70877103 L2.98838136,4.81020816 Z M11.5725667,15.9244699 L3.70614792,15.9244699 C3.21359441,15.9244699 2.81430089,15.5164856 2.81430089,15.0132113 C2.81430089,14.5099371 3.21359441,14.1019527 3.70614792,14.1019527 L11.5725667,14.1019527 C12.0657947,14.1019527 12.4644138,14.5105368 12.4644138,15.0132113 C12.4644138,15.5158858 12.0657947,15.9244699 11.5725667,15.9244699 Z M11.5725667,11.6672037 L3.70614792,11.6672037 C3.21359441,11.6672037 2.81430089,11.2592193 2.81430089,10.7559451 C2.81430089,10.2526709 3.21359441,9.84468647 3.70614792,9.84468647 L11.5725667,9.84468647 C12.0651202,9.84468647 12.4644138,10.2526709 12.4644138,10.7559451 C12.4644138,11.2599085 12.0657947,11.6672037 11.5725667,11.6672037 Z" id="形状" fill="#F65982"></path>
                    <path d="M7.18649582,11.6672037 L3.70614792,11.6672037 C3.38752166,11.6672037 3.09309884,11.4935188 2.9337857,11.2115744 C2.77447257,10.92963 2.77447257,10.5822602 2.9337857,10.3003158 C3.09309884,10.0183714 3.38752166,9.84468646 3.70614792,9.84468647 L9.42052848,9.84468647 C11.9951534,7.3248695 13.7410039,3.93117226 14.2026955,0.128890894 C13.98951,0.0476896307 13.7599256,0 13.5202496,0 L1.9426371,0 C0.870402337,0 0,0.888058259 0,1.98491977 L0,14.2785332 C2.63895897,14.013018 5.08743859,13.0875814 7.18649582,11.6672037 Z M2.98838136,4.81020816 C2.98838136,4.46478056 3.26211658,4.18508732 3.6001859,4.18508732 L8.11744788,4.18508732 C8.4555172,4.18508732 8.72925242,4.46478056 8.72925242,4.81020816 L8.72925242,6.70877103 C8.72925242,7.05419862 8.4555172,7.33389186 8.11744788,7.33389186 L3.6001859,7.33389186 C3.26211658,7.33389186 2.98838136,7.05419862 2.98838136,6.70877103 L2.98838136,4.81020816 Z" id="形状" fill="#FC6A90"></path>
                    <path d="M2.98838136,6.05013856 L2.98838136,4.81020816 C2.98838136,4.46478056 3.26211658,4.18508732 3.6001859,4.18508732 L5.32459169,4.18508732 C6.58401929,2.97347402 7.64192791,1.56037944 8.45677865,0.00128890894 L1.9426371,0.00128890894 C0.870402337,0.00128890894 0,0.889347168 0,1.98620867 L0,7.58007347 C1.04582066,7.17844564 2.04744644,6.66565224 2.98838136,6.05013856 Z" id="路径" fill="#FE7D9F"></path>
                </g>
            </g>
        </g>
    </g>
</svg>