<?xml version="1.0" encoding="UTF-8"?>
<svg width="40px" height="40px" viewBox="0 0 40 40" version="1.1" xmlns="http://www.w3.org/2000/svg" xmlns:xlink="http://www.w3.org/1999/xlink">
    <title>icon-yyzhhd</title>
    <g id="页面-1" stroke="none" stroke-width="1" fill="none" fill-rule="evenodd">
        <g id="0-1公众端首页" transform="translate(-126, -353)">
            <g id="icon-yyzhhd" transform="translate(126, 353)">
                <rect id="矩形备份-5" fill="#EFF4F9" x="0" y="0" width="40" height="40" rx="5"></rect>
                <g id="招募" transform="translate(11, 10)" fill-rule="nonzero">
                    <path d="M15.8852999,7.52869966 C15.7901153,7.31326948 15.7901153,7.06827062 15.8852999,6.85284044 L17.9268546,2.22227471 C18.1735947,1.66422582 17.7602738,1.03921105 17.1440499,1.03921105 L3.61968909,1.03921105 C3.61968909,0.465040746 3.15000625,0 2.5701045,0 C1.99020275,0 1.5217724,0.465040746 1.5217724,1.03921105 L1.5217724,18.9215779 L1.04958459,18.9215779 C0.46968284,18.9215779 0,19.3866186 0,19.9607889 C0,20.5349593 0.46968284,21 1.04958459,21 L4.16827865,21 C4.74818039,21 5.21786323,20.5349593 5.21786323,19.9607889 C5.21786323,19.3866186 4.74818039,18.9215779 4.16827865,18.9215779 L3.62094158,18.9215779 L3.62094158,13.342329 L17.1453024,13.342329 C17.7602738,13.342329 18.1735947,12.7173143 17.9281071,12.1592654 L15.8852999,7.52869966 Z M13.8850772,10.6066493 C13.7648384,10.6562537 13.6395897,10.6798158 13.5168459,10.6798158 C13.1398471,10.6798158 12.7816357,10.4590764 12.6275797,10.0920043 L11.4853111,7.36624542 C11.3801021,7.11574347 11.387617,6.83423881 11.5066033,6.5899374 L12.6350946,4.2548128 C12.8642999,3.7810913 13.4391917,3.57895358 13.9176419,3.80713358 C14.3973447,4.03407346 14.5989952,4.60328334 14.3697899,5.07700484 L13.4266668,7.02893587 L14.4048596,9.36282036 C14.6077626,9.84894296 14.3747999,10.4057517 13.8850772,10.6066493 L13.8850772,10.6066493 Z" id="形状" fill="#EF4D78"></path>
                    <path d="M13.8850772,10.6066493 C13.7648384,10.6562537 13.6395897,10.6798158 13.5168459,10.6798158 C13.1398471,10.6798158 12.7816357,10.4590764 12.6275797,10.0920043 L11.4853111,7.36624542 C11.3801021,7.11574347 11.387617,6.83423881 11.5066033,6.5899374 L12.6350946,4.2548128 C12.8642999,3.7810913 13.4391917,3.57895358 13.9176419,3.80713358 C14.3973447,4.03407346 14.5989952,4.60328334 14.3697899,5.07700484 L13.4266668,7.02893587 L14.4048596,9.36282036 C14.4386767,9.44466753 14.459969,9.52899492 14.4699889,9.61332231 C15.0786979,8.10411007 15.4156171,6.459726 15.4156171,4.73597496 C15.4156171,3.4524625 15.2264914,2.21235384 14.8808049,1.03921105 L3.61968909,1.03921105 C3.61968909,0.465040746 3.15000625,7.10542736e-15 2.5701045,7.10542736e-15 C1.99020275,7.10542736e-15 1.5217724,0.465040746 1.5217724,1.03921105 L1.5217724,17.907169 C1.713403,17.9158498 1.9050336,17.9220503 2.09791669,17.9220503 C2.61268908,17.9220503 3.11994655,17.8898075 3.61968909,17.8340026 L3.61968909,13.342329 L12.1829466,13.342329 C12.9306817,12.4841739 13.5681979,11.5305303 14.0754554,10.5012401 C14.0165884,10.5421637 13.9539641,10.5781268 13.8850772,10.6066493 L13.8850772,10.6066493 Z" id="路径" fill="#F65982"></path>
                    <path d="M11.7320511,1.03921105 L3.61968909,1.03921105 C3.61968909,0.465040746 3.15000625,0 2.5701045,0 C1.99020275,0 1.5217724,0.465040746 1.5217724,1.03921105 L1.5217724,12.8834888 C7.0853222,11.5850951 11.2986904,6.83423881 11.7320511,1.03921105 Z" id="路径" fill="#FC6A90"></path>
                    <path d="M7.13917917,1.03921105 L3.61968909,1.03921105 C3.61968909,0.465040746 3.15000625,0 2.5701045,0 C1.99020275,0 1.5217724,0.465040746 1.5217724,1.03921105 L1.5217724,6.94212826 C3.96412317,5.61025156 5.93804359,3.54175032 7.13917917,1.03921105 L7.13917917,1.03921105 Z" id="路径" fill="#FE7D9F"></path>
                </g>
            </g>
        </g>
    </g>
</svg>