<?xml version="1.0" encoding="UTF-8"?>
<svg width="36px" height="36px" viewBox="0 0 36 36" version="1.1" xmlns="http://www.w3.org/2000/svg" xmlns:xlink="http://www.w3.org/1999/xlink">
    <title>icon-1</title>
    <g id="页面-1" stroke="none" stroke-width="1" fill="none" fill-rule="evenodd">
        <g id="1-1-1-我要办托" transform="translate(-39, -159)">
            <g id="icon-1" transform="translate(39, 159)">
                <circle id="椭圆形" fill="#E9F2FF" cx="18" cy="18" r="18"></circle>
                <g id="phone-line" transform="translate(11, 11)" fill="#287CFF" fill-rule="nonzero">
                    <path d="M5.305,6.40166668 C6.08694658,7.77539853 7.22460149,8.91305344 8.59833334,9.69500002 L9.335,8.66333336 C9.58018297,8.32000308 10.0432712,8.21407253 10.4133333,8.41666668 C11.5919238,9.06079394 12.8935017,9.44817169 14.2325,9.55333336 C14.6658881,9.58767836 15,9.94941982 15,10.3841667 L15,14.1025 C15,14.5298947 14.6768323,14.8880724 14.2516667,14.9316667 C13.81,14.9775 13.365,15 12.9166667,15 C5.78333334,15 0,9.21666668 0,2.08333336 C0,1.63500002 0.0225,1.19000002 0.0683333398,0.74833336 C0.111927591,0.323167757 0.470105288,0 0.8975,0 L4.61583334,0 C5.0505802,0 5.41232166,0.334111906 5.44666666,0.76750002 C5.55182833,2.10649833 5.93920608,3.4080762 6.58333334,4.58666668 C6.78592749,4.95672881 6.67999694,5.41981705 6.33666666,5.66500002 L5.305,6.40166668 Z M3.20333334,5.85416668 L4.78666666,4.72333336 C4.33731883,3.75341126 4.02945986,2.72403414 3.8725,1.66666668 L1.675,1.66666668 C1.67,1.80500002 1.6675,1.94416668 1.6675,2.08333336 C1.66666666,8.29666668 6.70333334,13.3333334 12.9166667,13.3333334 C13.0558333,13.3333334 13.195,13.3308334 13.3333333,13.325 L13.3333333,11.1275 C12.2759659,10.9705402 11.2465888,10.6626812 10.2766667,10.2133334 L9.14583334,11.7966667 C8.69056007,11.6197435 8.24834906,11.4108907 7.8225,11.1716667 L7.77416666,11.1441667 C6.1396489,10.2139329 4.78606711,8.86035111 3.85583334,7.22583336 L3.82833334,7.17750002 C3.58908709,6.75166243 3.38023353,6.30944983 3.20333334,5.85416668 Z" id="形状"></path>
                </g>
            </g>
        </g>
    </g>
</svg>