<?xml version="1.0" encoding="UTF-8"?>
<svg width="36px" height="36px" viewBox="0 0 36 36" version="1.1" xmlns="http://www.w3.org/2000/svg" xmlns:xlink="http://www.w3.org/1999/xlink">
    <title>icon-4</title>
    <g id="页面-1" stroke="none" stroke-width="1" fill="none" fill-rule="evenodd">
        <g id="1-1-1-我要办托" transform="translate(-39, -309)">
            <g id="icon/add/yitianjia" transform="translate(39, 309)">
                <circle id="椭圆形" fill="#E9F2FF" cx="18" cy="18" r="18"></circle>
                <g id="draft-line" transform="translate(10, 10)" fill="#287CFF" fill-rule="nonzero">
                    <path d="M13.4706815,0 C13.908308,0 14.2630745,0.358172203 14.2630745,0.800000006 L14.2630745,3.80560001 L12.6782884,5.4056 L12.6782884,1.60000001 L1.58478605,1.60000001 L1.58478605,14.4 L12.6782884,14.4 L12.6782884,12.1936 L14.2630745,10.5936 L14.2630745,15.2 C14.2630745,15.6418278 13.908308,16 13.4706815,16 L0.792393033,16 C0.354766445,16 0,15.6418278 0,15.2 L0,0.800000006 C0,0.358172203 0.354766445,0 0.792393033,0 L13.4706815,0 L13.4706815,0 Z M14.8795563,5.4464 L16,6.57760001 L9.83676704,12.8 L8.71473851,12.7984 L8.71632329,11.6688 L14.8795563,5.4464 Z M7.92393028,8 L7.92393028,9.59999999 L3.96196513,9.59999999 L3.96196513,8 L7.92393028,8 Z M10.3011094,4.8 L10.3011094,6.40000001 L3.96196513,6.40000001 L3.96196513,4.8 L10.3011094,4.8 L10.3011094,4.8 Z" id="形状"></path>
                </g>
            </g>
        </g>
    </g>
</svg>