<?xml version="1.0" encoding="UTF-8"?>
<svg width="14px" height="14px" viewBox="0 0 14 14" version="1.1" xmlns="http://www.w3.org/2000/svg" xmlns:xlink="http://www.w3.org/1999/xlink">
    <title>icon_warning</title>
    <g id="页面-1" stroke="none" stroke-width="1" fill="none" fill-rule="evenodd">
        <g id="1-4-2-办托进度-失败" transform="translate(-77, -471)">
            <g id="icon/basic/warning" transform="translate(77, 471)">
                <circle id="椭圆形" fill="#FF3E2F" cx="7" cy="7" r="7"></circle>
                <path d="M6.99319728,8 C7.31075097,8 7.57750722,7.76119495 7.61251368,7.44557668 L7.95918367,4.32 L7.95918367,4.32 L7.96909331,3.99952227 C7.98564296,3.46430682 7.56518124,3.01701283 7.02996578,3.00046318 C7.01998017,3.00015441 7.00999038,3 7,3 C6.46452873,3 6.03044351,3.43408523 6.03044351,3.96955649 C6.03044351,3.97954688 6.03059792,3.98953666 6.03090669,3.99952227 L6.04081633,4.32 L6.04081633,4.32 L6.37590696,7.4453557 C6.40972825,7.76080335 6.6759417,8 6.99319728,8 Z M7,11 C6.45054945,11 6,10.6 6,10.0057143 C6,9.41142857 6.45054945,9 7,9 C7.54945055,9 8,9.41142857 8,10.0057143 C8,10.6 7.54945055,11 7,11 Z" id="！" fill="#FFFFFF"></path>
            </g>
        </g>
    </g>
</svg>