<?xml version="1.0" encoding="UTF-8"?>
<svg width="36px" height="36px" viewBox="0 0 36 36" version="1.1" xmlns="http://www.w3.org/2000/svg" xmlns:xlink="http://www.w3.org/1999/xlink">
    <title>icon-5</title>
    <g id="页面-1" stroke="none" stroke-width="1" fill="none" fill-rule="evenodd">
        <g id="1-1-1-我要办托" transform="translate(-39, -359)">
            <g id="编组-4" transform="translate(39, 359)">
                <circle id="椭圆形" fill="#E9F2FF" cx="18" cy="18" r="18"></circle>
                <g id="survey-line" transform="translate(10, 9)" fill="#287CFF" fill-rule="nonzero">
                    <path d="M12.4444444,0 L12.4444444,1.80000001 L15.1173333,1.80000001 C15.6044444,1.80000001 16,2.20050002 16,2.69370001 L16,17.1063 C15.99951,17.5996712 15.6046136,17.9995039 15.1173333,18 L0.882666667,18 C0.648568912,18 0.424059191,17.9058426 0.258527081,17.7382413 C0.0929949711,17.5706401 0,17.343324 0,17.1063 L0,2.69370001 C0,2.2005 0.395555563,1.80000001 0.882666667,1.80000001 L3.55555556,1.80000001 L3.55555556,0 L12.4444444,0 Z M3.55555556,3.6 L1.77777777,3.6 L1.77777777,16.2 L14.2222222,16.2 L14.2222222,3.6 L12.4444444,3.6 L12.4444444,5.4 L3.55555556,5.4 L3.55555556,3.6 Z M5.33333333,12.6 L5.33333333,14.4 L3.55555556,14.4 L3.55555556,12.6 L5.33333333,12.6 Z M5.33333333,9.90000001 L5.33333333,11.7 L3.55555556,11.7 L3.55555556,9.90000001 L5.33333333,9.90000001 Z M5.33333333,7.20000001 L5.33333333,9 L3.55555556,9 L3.55555556,7.20000001 L5.33333333,7.20000001 Z M10.6666667,1.80000001 L5.33333333,1.80000001 L5.33333333,3.6 L10.6666667,3.6 L10.6666667,1.80000001 L10.6666667,1.80000001 Z" id="形状"></path>
                </g>
            </g>
        </g>
    </g>
</svg>