<?xml version="1.0" encoding="UTF-8"?>
<svg width="16px" height="16px" viewBox="0 0 16 16" version="1.1" xmlns="http://www.w3.org/2000/svg" xmlns:xlink="http://www.w3.org/1999/xlink">
    <title>icon-cw</title>
    <g id="页面-1" stroke="none" stroke-width="1" fill="none" fill-rule="evenodd">
        <g id="1-4-2-办托进度-失败" transform="translate(-47, -331)">
            <g id="icon/add/yitianjia" transform="translate(47, 331)">
                <circle id="椭圆形" fill="#FF3E2F" cx="8" cy="8" r="8"></circle>
                <path d="M11,5.14268728 C11,5.06420927 10.9377163,5 10.8615917,5 L9.71972318,5.00535077 L8,7.11890606 L6.28200692,5.00713436 L5.1384083,5.00178359 C5.06228374,5.00178359 5,5.06420927 5,5.14447087 C5,5.1783591 5.01211073,5.21046373 5.03287197,5.2372176 L7.28373702,8.00178359 L5.03287197,10.764566 C5.01211073,10.7913199 5,10.8234245 5,10.8573127 C5,10.9357907 5.06228374,11 5.1384083,11 L6.28200692,10.9946492 L8,8.88109394 L9.71799308,10.9928656 L10.8598616,10.9982164 C10.9359862,10.9982164 10.9982699,10.9357907 10.9982699,10.8555291 C10.9982699,10.8216409 10.9861592,10.7895363 10.9653979,10.7627824 L8.71799308,8 L10.9688581,5.23543401 C10.9896194,5.21046373 11,5.17657551 11,5.14268728 Z" id="路径" fill="#FFFFFF" fill-rule="nonzero"></path>
            </g>
        </g>
    </g>
</svg>