<?xml version="1.0" encoding="UTF-8"?>
<svg width="36px" height="36px" viewBox="0 0 36 36" version="1.1" xmlns="http://www.w3.org/2000/svg" xmlns:xlink="http://www.w3.org/1999/xlink">
    <title>icon-2</title>
    <g id="页面-1" stroke="none" stroke-width="1" fill="none" fill-rule="evenodd">
        <g id="1-1-1-我要办托" transform="translate(-39, -209)">
            <g id="编组" transform="translate(39, 209)">
                <circle id="椭圆形" fill="#E9F2FF" cx="18" cy="18" r="18"></circle>
                <g id="building-line" transform="translate(9, 10)" fill="#287CFF" fill-rule="nonzero">
                    <path d="M16.3636364,13.3333333 L18,13.3333333 L18,15 L0,15 L0,13.3333333 L1.63636363,13.3333333 L1.63636363,0.83333334 C1.63636363,0.373096045 2.00267611,0 2.45454546,0 L10.6363636,0 C11.088233,0 11.4545455,0.373096045 11.4545455,0.83333334 L11.4545455,13.3333333 L14.7272727,13.3333333 L14.7272727,6.66666666 L13.0909091,6.66666666 L13.0909091,5 L15.5454545,5 C15.7624499,5 15.9705576,5.08779737 16.1239965,5.24407768 C16.2774353,5.400358 16.3636364,5.6123196 16.3636364,5.83333334 L16.3636364,13.3333333 Z M3.27272726,1.66666666 L3.27272726,13.3333333 L9.81818183,13.3333333 L9.81818183,1.66666666 L3.27272726,1.66666666 Z M4.90909091,6.66666666 L8.18181817,6.66666666 L8.18181817,8.33333334 L4.90909091,8.33333334 L4.90909091,6.66666666 L4.90909091,6.66666666 Z M4.90909091,3.33333334 L8.18181817,3.33333334 L8.18181817,5 L4.90909091,5 L4.90909091,3.33333334 L4.90909091,3.33333334 Z" id="形状"></path>
                </g>
            </g>
        </g>
    </g>
</svg>