<?xml version="1.0" encoding="UTF-8"?>
<svg width="13px" height="13px" viewBox="0 0 13 13" version="1.1" xmlns="http://www.w3.org/2000/svg" xmlns:xlink="http://www.w3.org/1999/xlink">
    <title>icon-input-delete</title>
    <g id="页面-1" stroke="none" stroke-width="1" fill="none" fill-rule="evenodd">
        <g id="1-3-1-有资格申请" transform="translate(-134, -1506)">
            <g id="形状结合-2" transform="translate(134, 1506)">
                <circle id="椭圆形" fill-opacity="0.5" fill="#000000" cx="6.5" cy="6.5" r="6.5"></circle>
                <path d="M6.5,2.4375 C6.83654852,2.4375 7.109375,2.71032648 7.109375,3.046875 L7.1085,5.8905 L9.953125,5.890625 C10.2896735,5.890625 10.5625,6.16345148 10.5625,6.5 C10.5625,6.83654852 10.2896735,7.109375 9.953125,7.109375 L7.1085,7.1085 L7.109375,9.953125 C7.109375,10.2896735 6.83654852,10.5625 6.5,10.5625 C6.16345148,10.5625 5.890625,10.2896735 5.890625,9.953125 L5.8905,7.1085 L3.046875,7.109375 C2.71032648,7.109375 2.4375,6.83654852 2.4375,6.5 C2.4375,6.16345148 2.71032648,5.890625 3.046875,5.890625 L5.8905,5.8905 L5.890625,3.046875 C5.890625,2.71032648 6.16345148,2.4375 6.5,2.4375 Z" id="形状结合" fill-opacity="0.8" fill="#FFFFFF" fill-rule="nonzero" transform="translate(6.5, 6.5) rotate(45) translate(-6.5, -6.5)"></path>
            </g>
        </g>
    </g>
</svg>