<?xml version="1.0" encoding="UTF-8"?>
<svg width="36px" height="36px" viewBox="0 0 36 36" version="1.1" xmlns="http://www.w3.org/2000/svg" xmlns:xlink="http://www.w3.org/1999/xlink">
    <title>icon-3</title>
    <g id="页面-1" stroke="none" stroke-width="1" fill="none" fill-rule="evenodd">
        <g id="1-1-1-我要办托" transform="translate(-39, -259)">
            <g id="icon/add/yitianjia" transform="translate(39, 259)">
                <circle id="椭圆形" fill="#E9F2FF" cx="18" cy="18" r="18"></circle>
                <g id="file-list-3-line" transform="translate(10, 10)" fill="#287CFF" fill-rule="nonzero">
                    <path d="M13.6,16 L2.4,16 C1.0745166,16 0,14.9254834 0,13.6 L0,0.800000006 C0,0.358172203 0.358172203,0 0.800000006,0 L12,0 C12.4418278,0 12.8,0.358172203 12.8,0.800000006 L12.8,10.4 L16,10.4 L16,13.6 C16,14.9254834 14.9254834,16 13.6,16 Z M12.8,12 L12.8,13.6 C12.7999562,13.8858416 12.9524258,14.1499889 13.1999646,14.2929224 C13.4475035,14.4358558 13.7524965,14.4358558 14.0000354,14.2929224 C14.2475742,14.1499889 14.4000437,13.8858416 14.4,13.6 L14.4,12 L12.8,12 L12.8,12 Z M11.2,14.4 L11.2,1.60000001 L1.60000001,1.60000001 L1.60000001,13.6 C1.60000001,14.0418278 1.95817221,14.4 2.4,14.4 L11.2,14.4 Z M3.2,4.00000001 L9.59999999,4.00000001 L9.59999999,5.6 L3.2,5.6 L3.2,4.00000001 Z M3.2,7.19999999 L9.59999999,7.19999999 L9.59999999,8.80000001 L3.2,8.80000001 L3.2,7.19999999 L3.2,7.19999999 Z M3.2,10.4 L7.2,10.4 L7.2,12 L3.2,12 L3.2,10.4 Z" id="形状"></path>
                </g>
            </g>
        </g>
    </g>
</svg>