<?xml version="1.0" encoding="UTF-8"?>
<svg width="45px" height="45px" viewBox="0 0 45 45" version="1.1" xmlns="http://www.w3.org/2000/svg" xmlns:xlink="http://www.w3.org/1999/xlink">
    <title>img-cg</title>
    <defs>
        <linearGradient x1="36.779764%" y1="0%" x2="85.7748118%" y2="104.528754%" id="linearGradient-1">
            <stop stop-color="#F0F5FF" offset="0%"></stop>
            <stop stop-color="#DAE9FF" offset="100%"></stop>
        </linearGradient>
    </defs>
    <g id="页面-1" stroke="none" stroke-width="1" fill="none" fill-rule="evenodd">
        <g id="1-4-1-2-办托进度-成功-展开" transform="translate(-108, -149)">
            <g id="编组" transform="translate(108, 149)">
                <circle id="椭圆形" fill="url(#linearGradient-1)" cx="22.5" cy="22.5" r="22.5"></circle>
                <g id="check" transform="translate(11.52, 11.52)" fill-rule="nonzero">
                    <rect id="矩形" fill="#000000" opacity="0" x="0" y="0" width="21.96" height="21.96"></rect>
                    <path d="M19.8959712,4.07460937 L18.3969438,4.07460937 C18.1867797,4.07460937 17.9873383,4.17111328 17.8586665,4.33624219 L9.01676412,15.5371289 L4.77702584,10.1650781 C4.64620944,9.99994922 4.44891256,9.90344531 4.2387485,9.90344531 L2.73972115,9.90344531 C2.59603756,9.90344531 2.5166899,10.0685742 2.60461569,10.1800898 L8.47848678,17.6216133 C8.75298678,17.9690273 9.28054147,17.9690273 9.557186,17.6216133 L20.0310766,4.34910938 C20.1190024,4.23973828 20.0396547,4.07460937 19.8959712,4.07460937 Z" id="路径" stroke="#287CFF" stroke-width="1.01353846" fill="#287CFF"></path>
                </g>
            </g>
        </g>
    </g>
</svg>