<?xml version="1.0" encoding="UTF-8"?>
<svg width="24px" height="24px" viewBox="0 0 24 24" version="1.1" xmlns="http://www.w3.org/2000/svg" xmlns:xlink="http://www.w3.org/1999/xlink">
    <title>icon-rtyy</title>
    <g id="页面-1" stroke="none" stroke-width="1" fill="none" fill-rule="evenodd">
        <g id="0-2-1-我的" transform="translate(-33, -290)" fill="#287CFF" fill-rule="nonzero">
            <g id="home" transform="translate(33, 290)">
                <rect id="矩形" opacity="0" x="0" y="0" width="24" height="24"></rect>
                <path d="M22.1835938,11.8359375 L13.1273438,2.784375 L12.5203125,2.17734375 C12.2320313,1.89140625 11.7679688,1.89140625 11.4796875,2.17734375 L1.81640625,11.8359375 C1.528125,12.1242188 1.3734375,12.50625 1.375755,12.9140625 C1.38515625,13.7390625 2.071875,14.3976562 2.896875,14.3976562 L3.89296875,14.3976562 L3.89296875,22.03125 L20.1070313,22.03125 L20.1070313,14.3976562 L21.1242188,14.3976562 C21.525,14.3976562 21.9023438,14.240625 22.1859375,13.9570312 C22.4695313,13.6734375 22.6242188,13.2960937 22.6242188,12.8953125 C22.6242188,12.496875 22.4671875,12.1195313 22.1835938,11.8359375 Z M13.3125,20.34375 L10.6875,20.34375 L10.6875,15.5625 L13.3125,15.5625 L13.3125,20.34375 Z M18.4195312,12.7101563 L18.4195312,20.34375 L14.8125,20.34375 L14.8125,15 C14.8125,14.4820312 14.3929687,14.0625 13.875,14.0625 L10.125,14.0625 C9.60703125,14.0625 9.1875,14.4820312 9.1875,15 L9.1875,20.34375 L5.58046875,20.34375 L5.58046875,12.7101563 L3.33046875,12.7101563 L12.0023437,4.0453125 L12.54375,4.58671875 L20.671875,12.7101563 L18.4195312,12.7101563 Z" id="形状"></path>
            </g>
        </g>
    </g>
</svg>