<?xml version="1.0" encoding="UTF-8"?>
<svg width="24px" height="24px" viewBox="0 0 24 24" version="1.1" xmlns="http://www.w3.org/2000/svg" xmlns:xlink="http://www.w3.org/1999/xlink">
    <title>icon-rttjyy</title>
    <g id="页面-1" stroke="none" stroke-width="1" fill="none" fill-rule="evenodd">
        <g id="0-2-1-我的" transform="translate(-33, -350)" fill-rule="nonzero">
            <g id="solution" transform="translate(33, 350)">
                <rect id="矩形" fill="#000000" opacity="0" x="0" y="0" width="24" height="24"></rect>
                <path d="M16.125,6.1875 C16.125,6.084375 16.040625,6 15.9375,6 L6.9375,6 C6.834375,6 6.75,6.084375 6.75,6.1875 L6.75,7.3125 C6.75,7.415625 6.834375,7.5 6.9375,7.5 L15.9375,7.5 C16.040625,7.5 16.125,7.415625 16.125,7.3125 L16.125,6.1875 Z M15.9375,9.375 L6.9375,9.375 C6.834375,9.375 6.75,9.459375 6.75,9.5625 L6.75,10.6875 C6.75,10.790625 6.834375,10.875 6.9375,10.875 L15.9375,10.875 C16.040625,10.875 16.125,10.790625 16.125,10.6875 L16.125,9.5625 C16.125,9.459375 16.040625,9.375 15.9375,9.375 Z M11.25,12.75 L6.9375,12.75 C6.834375,12.75 6.75,12.834375 6.75,12.9375 L6.75,14.0625 C6.75,14.165625 6.834375,14.25 6.9375,14.25 L11.25,14.25 C11.353125,14.25 11.4375,14.165625 11.4375,14.0625 L11.4375,12.9375 C11.4375,12.834375 11.353125,12.75 11.25,12.75 Z M10.125,19.96875 L4.875,19.96875 L4.875,3.46875 L18,3.46875 L18,11.53125 C18,11.634375 18.084375,11.71875 18.1875,11.71875 L19.5,11.71875 C19.603125,11.71875 19.6875,11.634375 19.6875,11.53125 L19.6875,2.53125 C19.6875,2.11640625 19.3523437,1.78125 18.9375,1.78125 L3.9375,1.78125 C3.52265625,1.78125 3.1875,2.11640625 3.1875,2.53125 L3.1875,20.90625 C3.1875,21.3210937 3.52265625,21.65625 3.9375,21.65625 L10.125,21.65625 C10.228125,21.65625 10.3125,21.571875 10.3125,21.46875 L10.3125,20.15625 C10.3125,20.053125 10.228125,19.96875 10.125,19.96875 Z M18.4875,18.225 C19.1671875,17.6085938 19.59375,16.7179688 19.59375,15.7265625 C19.59375,13.8632812 18.0820313,12.3515625 16.21875,12.3515625 C14.3554688,12.3515625 12.84375,13.8632812 12.84375,15.7265625 C12.84375,16.7179688 13.2703125,17.6085937 13.95,18.225 C12.6140625,18.9867188 11.6953125,20.3976562 11.625,22.0242188 C11.6203125,22.1296875 11.7070313,22.21875 11.8125,22.21875 L12.9398438,22.21875 C13.0382812,22.21875 13.1203125,22.1414063 13.1273438,22.040625 C13.21875,20.41875 14.5710938,19.125 16.21875,19.125 C17.8664062,19.125 19.21875,20.41875 19.3101562,22.040625 C19.3148438,22.1390625 19.396875,22.21875 19.4976562,22.21875 L20.625,22.21875 C20.7328125,22.21875 20.8171875,22.1296875 20.8125,22.0242188 C20.7445313,20.3953125 19.8234375,18.9867188 18.4875,18.225 Z M16.21875,13.8515625 C17.2546875,13.8515625 18.09375,14.690625 18.09375,15.7265625 C18.09375,16.7625 17.2546875,17.6015625 16.21875,17.6015625 C15.1828125,17.6015625 14.34375,16.7625 14.34375,15.7265625 C14.34375,14.690625 15.1828125,13.8515625 16.21875,13.8515625 Z" id="形状" fill="#287CFF"></path>
            </g>
        </g>
    </g>
</svg>