<?xml version="1.0" encoding="UTF-8"?>
<svg width="24px" height="24px" viewBox="0 0 24 24" version="1.1" xmlns="http://www.w3.org/2000/svg" xmlns:xlink="http://www.w3.org/1999/xlink">
    <title>icon-lstyy</title>
    <g id="页面-1" stroke="none" stroke-width="1" fill="none" fill-rule="evenodd">
        <g id="0-2-1-我的" transform="translate(-33, -410)" fill="#287CFF" fill-rule="nonzero">
            <g id="time-circle" transform="translate(33, 410)">
                <rect id="矩形" opacity="0" x="0" y="0" width="24" height="24"></rect>
                <path d="M12,1.5 C6.2015625,1.5 1.5,6.2015625 1.5,12 C1.5,17.7984375 6.2015625,22.5 12,22.5 C17.7984375,22.5 22.5,17.7984375 22.5,12 C22.5,6.2015625 17.7984375,1.5 12,1.5 Z M12,20.71875 C7.1859375,20.71875 3.28125,16.8140625 3.28125,12 C3.28125,7.1859375 7.1859375,3.28125 12,3.28125 C16.8140625,3.28125 20.71875,7.1859375 20.71875,12 C20.71875,16.8140625 16.8140625,20.71875 12,20.71875 Z M16.0945313,14.9671875 L12.7523438,12.5507812 L12.7523438,6.75 C12.7523438,6.646875 12.6679688,6.5625 12.5648437,6.5625 L11.4375,6.5625 C11.334375,6.5625 11.25,6.646875 11.25,6.75 L11.25,13.2046875 C11.25,13.265625 11.278125,13.321875 11.3273438,13.3570312 L15.2039063,16.1835938 C15.2882813,16.2445312 15.4054688,16.2257813 15.4664063,16.14375 L16.1367188,15.2296875 C16.1976563,15.1429687 16.1789062,15.0257813 16.0945313,14.9671875 L16.0945313,14.9671875 Z" id="形状"></path>
            </g>
        </g>
    </g>
</svg>