<?xml version="1.0" encoding="UTF-8"?>
<svg width="24px" height="24px" viewBox="0 0 24 24" version="1.1" xmlns="http://www.w3.org/2000/svg" xmlns:xlink="http://www.w3.org/1999/xlink">
    <title>icon-wdhd</title>
    <g id="页面-1" stroke="none" stroke-width="1" fill="none" fill-rule="evenodd">
        <g id="0-2-1-我的" transform="translate(-33, -230)" fill-rule="nonzero">
            <g id="flag" transform="translate(33, 230)">
                <rect id="矩形" fill="#000000" opacity="0" x="0" y="0" width="24" height="24"></rect>
                <path d="M20.625,7.1484375 L14.625,7.1484375 L14.625,4.5 C14.625,4.08515625 14.2898438,3.75 13.875,3.75 L4.3125,3.75 L4.3125,2.8125 C4.3125,2.709375 4.228125,2.625 4.125,2.625 L2.8125,2.625 C2.709375,2.625 2.625,2.709375 2.625,2.8125 L2.625,21.1875 C2.625,21.290625 2.709375,21.375 2.8125,21.375 L4.125,21.375 C4.228125,21.375 4.3125,21.290625 4.3125,21.1875 L4.3125,15 L10.125,15 L10.125,17.6484375 C10.125,18.0632812 10.4601563,18.3984375 10.875,18.3984375 L20.625,18.3984375 C21.0398437,18.3984375 21.375,18.0632812 21.375,17.6484375 L21.375,7.8984375 C21.375,7.48359375 21.0398437,7.1484375 20.625,7.1484375 Z M4.3125,13.3125 L4.3125,5.4375 L12.9375,5.4375 L12.9375,13.3125 L4.3125,13.3125 Z M19.6875,16.7109375 L11.8125,16.7109375 L11.8125,15 L14.4375,15 C14.540625,15 14.625,14.915625 14.625,14.8125 L14.625,8.8359375 L19.6875,8.8359375 L19.6875,16.7109375 Z" id="形状" fill="#287CFF"></path>
            </g>
        </g>
    </g>
</svg>