<?xml version="1.0" encoding="UTF-8"?>
<svg width="20px" height="20px" viewBox="0 0 20 20" version="1.1" xmlns="http://www.w3.org/2000/svg" xmlns:xlink="http://www.w3.org/1999/xlink">
    <title>icon-fxty-1</title>
    <g id="页面-1" stroke="none" stroke-width="1" fill="none" fill-rule="evenodd">
        <g id="0-1公众端首页" transform="translate(-178, -742)">
            <g id="编组-3" transform="translate(178, 742)">
                <rect id="矩形" fill-opacity="0" fill="#ECF3FC" x="0" y="0" width="20" height="20"></rect>
                <g id="home-smile-line" transform="translate(0, 1)" fill="#287CFF" fill-rule="nonzero">
                    <path d="M4.54545454,16.167879 L15.4545455,16.167879 L15.4545455,7.15109567 L10,2.15490178 L4.54545454,7.15109567 L4.54545454,16.167879 Z M16.3636364,18 L3.63636362,18 C3.13428658,18 2.72727273,17.5898657 2.72727273,17.0839395 L2.72727273,8.83939513 L0,8.83939513 L9.38818181,0.238503239 C9.73501685,-0.0795010797 10.2649832,-0.0795010797 10.6118182,0.238503239 L20,8.83939513 L17.2727273,8.83939513 L17.2727273,17.0839395 C17.2727273,17.5898657 16.8657134,18 16.3636364,18 L16.3636364,18 Z M5.90909091,10.6715161 L7.72727272,10.6715161 C7.72727276,11.9363317 8.74480741,12.9616673 10,12.9616673 C11.2551926,12.9616673 12.2727272,11.9363317 12.2727273,10.6715161 L14.0909091,10.6715161 C14.0909091,12.9481842 12.2593467,14.7937883 10,14.7937883 C7.74065329,14.7937883 5.90909091,12.9481842 5.90909091,10.6715161 L5.90909091,10.6715161 Z" id="形状"></path>
                </g>
            </g>
        </g>
    </g>
</svg>