<?xml version="1.0" encoding="UTF-8"?>
<svg width="20px" height="20px" viewBox="0 0 20 20" version="1.1" xmlns="http://www.w3.org/2000/svg" xmlns:xlink="http://www.w3.org/1999/xlink">
    <title>icon-tywd-1</title>
    <g id="页面-1" stroke="none" stroke-width="1" fill="none" fill-rule="evenodd">
        <g id="0-1公众端首页" transform="translate(-53, -706)">
            <g id="编组-2" transform="translate(53, 706)">
                <rect id="矩形备份-12" fill-opacity="0" fill="#ECF3FC" x="0" y="0" width="20" height="20"></rect>
                <g id="robot-2-line" transform="translate(0, 1)" fill="#287CFF" fill-rule="nonzero">
                    <path d="M11.25,1.2440387 C11.25,1.61223064 11.0891667,1.94310583 10.8333333,2.17115265 L10.8333333,3.73182206 L15,3.73182206 C16.3807119,3.73182206 17.5,4.84564061 17.5,6.21960543 L17.5,14.5122166 C17.5,15.8861814 16.3807119,17 15,17 L5,17 C3.61928813,17 2.5,15.8861814 2.5,14.5122166 L2.5,6.21960543 C2.5,4.84564061 3.61928813,3.73182206 5,3.73182206 L9.16666666,3.73182206 L9.16666666,2.17115265 C8.73853623,1.7900924 8.62648041,1.16772926 8.89502741,0.662455904 C9.16357441,0.157182553 9.74359594,-0.100935549 10.301082,0.0367409299 C10.8585682,0.174417409 11.250013,0.672448338 11.25,1.2440387 Z M5,5.39034432 C4.53976271,5.39034432 4.16666666,5.76161716 4.16666666,6.21960543 L4.16666666,14.5122166 C4.16666666,14.9702049 4.5397627,15.3414778 5,15.3414778 L15,15.3414778 C15.4602373,15.3414778 15.8333333,14.9702049 15.8333333,14.5122166 L15.8333333,6.21960543 C15.8333333,5.76161716 15.4602373,5.39034432 15,5.39034432 L5,5.39034432 Z M1.66666666,7.87812768 L0,7.87812768 L0,12.8536944 L1.66666666,12.8536944 L1.66666666,7.87812768 L1.66666666,7.87812768 Z M18.3333333,7.87812768 L20,7.87812768 L20,12.8536944 L18.3333333,12.8536944 L18.3333333,7.87812768 L18.3333333,7.87812768 Z M7.5,11.6098027 C8.19035594,11.6098027 8.75,11.0528934 8.75,10.365911 C8.75,9.67892864 8.19035594,9.12201936 7.5,9.12201936 C6.80964406,9.12201936 6.25,9.67892864 6.25,10.365911 C6.25,11.0528934 6.80964406,11.6098027 7.5,11.6098027 Z M12.5,11.6098027 C13.1903559,11.6098027 13.75,11.0528934 13.75,10.365911 C13.75,9.67892864 13.1903559,9.12201936 12.5,9.12201936 C11.8096441,9.12201936 11.25,9.67892864 11.25,10.365911 C11.25,11.0528934 11.8096441,11.6098027 12.5,11.6098027 Z" id="形状"></path>
                </g>
            </g>
        </g>
    </g>
</svg>