<?xml version="1.0" encoding="UTF-8"?>
<svg width="20px" height="20px" viewBox="0 0 20 20" version="1.1" xmlns="http://www.w3.org/2000/svg" xmlns:xlink="http://www.w3.org/1999/xlink">
    <title>icon-wd-1</title>
    <g id="页面-1" stroke="none" stroke-width="1" fill="none" fill-rule="evenodd">
        <g id="0-1公众端首页" transform="translate(-303, -706)" fill="#287CFF" fill-rule="nonzero">
            <g id="user-line" transform="translate(303, 706)">
                <path d="M2,20 C2,15.7921162 5.35786438,12.3809524 9.5,12.3809524 C13.6421356,12.3809524 17,15.7921162 17,20 L15.125,20 C15.125,16.8440871 12.6066017,14.2857143 9.5,14.2857143 C6.39339828,14.2857143 3.87499999,16.8440871 3.87499999,20 L2,20 L2,20 Z M9.5,11.4285714 C6.3921875,11.4285714 3.87499999,8.87142857 3.87499999,5.71428571 C3.87499999,2.55714286 6.3921875,0 9.5,0 C12.6078125,0 15.125,2.55714286 15.125,5.71428571 C15.125,8.87142857 12.6078125,11.4285714 9.5,11.4285714 Z M9.5,9.52380951 C11.571875,9.52380951 13.25,7.81904761 13.25,5.71428571 C13.25,3.60952382 11.571875,1.9047619 9.5,1.9047619 C7.42812498,1.9047619 5.74999999,3.60952379 5.74999999,5.71428571 C5.74999999,7.81904763 7.42812498,9.52380951 9.5,9.52380951 L9.5,9.52380951 Z" id="形状"></path>
            </g>
        </g>
    </g>
</svg>